<svg width="246" height="103" viewBox="0 0 246 103" fill="none" xmlns="http://www.w3.org/2000/svg">
<path d="M39.7646 48.8606C38.8674 48.0637 38.4645 47.1151 38.5478 46.1106C38.6351 45.0582 39.2486 44.0494 40.512 43.3354C41.875 42.5816 43.5371 42.286 45.2114 42.4249C46.5508 42.536 47.8664 42.9341 49.0186 43.5595L49.0664 43.5635L49.9709 42.5308C50.3016 42.0284 51.8407 43.2157 51.4582 43.762C51.1595 44.4596 50.6575 45.285 50.4865 46.1859C50.3712 46.9951 50.531 47.9717 51.3722 48.2823C53.7721 48.9631 58.0884 46.8648 59.9692 45.0942C60.8499 44.3485 61.4682 45.6039 58.619 48.0166C57.3238 49.1133 53.8962 50.3702 51.9268 49.7251C50.38 49.2115 49.2595 48.2034 48.7805 46.4297C47.3419 47.5145 43.9823 49.6921 41.447 49.4818C40.8251 49.4302 40.263 49.2391 39.7646 48.8606ZM40.713 47.8796C43.0329 47.7831 46.3049 46.0798 48.126 44.4488C47.6596 44.2656 46.9978 44.1144 46.2803 44.0548C43.8885 43.8564 40.6559 44.5033 39.9472 46.6601C39.756 47.2223 39.9994 47.7723 40.713 47.8796ZM60.2219 52.7252C59.9069 52.4583 59.6476 52.0996 59.6516 52.0518C59.52 51.8964 59.5279 51.8007 59.5319 51.7529C59.3683 51.4021 59.3243 50.7723 59.2443 49.9951L59.1156 46.9018C59.2223 44.4543 59.3806 41.3848 59.6386 38.2755L59.7656 36.7448C60.2379 31.0523 60.9454 25.4276 61.7101 23.7571C61.8734 23.5298 62.3518 23.5695 62.8063 23.8962C63.1652 24.215 63.4125 24.7171 63.2452 24.9922C62.5323 26.6189 61.8171 32.9173 61.2972 39.1838C61.0392 42.2931 60.8331 45.3585 60.8698 47.818C61.8458 45.9242 65.2366 42.2078 67.3097 42.7652C67.7362 42.8487 68.2904 43.1355 68.6413 43.5499L68.8646 43.7611C69.7938 44.7534 70.0334 45.9292 69.9421 47.0294C69.8826 47.7469 69.6835 48.4047 69.4445 48.9629L69.0462 49.7005C71.4219 49.5123 75.4273 47.6771 77.2246 46.3331C77.7426 45.8945 77.3326 47.3536 76.8505 47.9397C74.8821 50.1847 71.335 51.7206 67.1215 51.4192L66.7388 51.3875L66.5435 51.4194C65.7662 51.4994 63.0036 51.1258 62.0108 50.3209L61.9191 50.2651L61.7359 50.7316L61.3378 52.0472C61.3578 52.386 61.2423 52.6172 61.1826 52.7568C61.1347 52.7528 61.0789 52.8445 60.9793 52.8844C60.9315 52.8804 60.6804 53.0041 60.2219 52.7252ZM62.3811 49.3402C62.8436 49.5712 63.3141 49.7066 63.7924 49.7462C65.9928 49.9288 68.069 48.1263 68.2555 45.878C68.3111 45.2083 68.2073 44.7181 67.9441 44.4072L67.8164 44.204L67.7208 44.196C66.0507 44.5873 64.6482 46.3975 62.2894 49.2844L62.3811 49.3402ZM90.671 48.123C89.5869 48.4184 86.4419 48.591 83.5358 48.2054C83.6755 48.8431 83.6638 49.5646 83.4608 50.2702C82.8318 52.6263 80.7714 53.6595 78.5828 53.3334C76.8209 53.0909 75.748 51.5088 75.6199 50.1495C75.4518 48.1127 76.886 45.9197 78.018 45.6283C78.1136 45.6363 78.1654 45.5924 78.2611 45.6003C78.508 44.9465 78.8865 44.4481 79.8393 44.5753C81.115 44.8738 82.1157 45.583 82.7618 46.5036C83.9458 46.7463 85.1856 46.8973 86.2858 46.9886C88.5341 47.1751 90.4155 47.1385 90.8461 47.1743C92.2373 47.2415 91.8508 47.8356 90.671 48.123ZM78.8874 46.7601C78.2258 47.1869 77.178 48.7857 77.3061 50.1449C77.4302 51.552 77.9127 52.1219 78.8256 52.1494C80.9383 52.2284 82.2169 49.5891 81.5944 47.8035C80.51 47.5209 79.625 47.1584 78.991 46.6724L78.8874 46.7601ZM94.5301 54.1748C92.9515 54.0439 91.4283 52.6652 91.0371 50.9951C90.8933 50.4052 90.8493 49.7754 90.9009 49.1536C90.9644 48.3882 91.1753 47.5869 91.6136 46.949C91.8924 46.4904 92.2152 46.0837 92.6576 45.9759C93.0482 45.912 93.5546 46.1949 93.9015 46.6571C94.2525 47.0716 94.133 47.3506 93.8819 47.4743C93.1765 47.8493 92.6309 49.2008 92.5277 50.4445C92.4563 51.3055 92.5841 52.0868 93.0825 52.4653C94.9326 53.9674 98.5583 49.1627 99.0839 47.4724C99.2829 46.8146 100.886 47.8145 100.731 48.5241C100.655 48.855 100.544 49.6164 100.472 50.4775C100.568 51.6414 100.808 52.8172 102.135 53.0719C105.448 53.2022 108.528 50.905 110.238 49.4574C110.716 48.9191 110.549 50.3502 109.9 51.2115C108.82 52.615 106.166 54.9957 102.881 54.5305C101.016 54.3758 99.6281 53.1047 99.0893 51.4705C98.0175 52.7784 96.4914 54.3376 94.5301 54.1748ZM116.873 57.1363C116.135 57.3159 115.458 57.356 114.836 57.3044C113.162 57.1655 111.794 56.2333 110.88 54.4717C109.6 51.9091 109.443 47.9947 109.768 44.0722C109.931 42.1109 110.194 40.1097 110.532 38.3557L104.158 37.9714C103.305 37.8043 104.141 36.4287 105.05 36.5041C106.629 36.6351 108.594 36.75 110.846 36.8887C111.26 34.8037 111.734 33.1573 112.048 32.2682C113.613 27.9187 115.522 25.2353 118.26 25.3181C121.29 25.3767 121.976 28.1309 121.722 31.1924C121.556 33.2015 120.994 35.3224 120.381 36.9091L120.202 37.3277C123.084 37.4223 126.113 37.481 129.195 37.4958C132.376 37.4708 135.158 37.6053 136.868 37.3136C137.211 37.2458 137.498 37.2696 137.37 37.6443C136.402 38.8644 132.069 38.8421 129.753 38.8908C126.038 38.9679 122.77 38.8894 119.596 38.8188C117.979 42.6341 115.809 46.7407 111.409 50.4216C111.721 53.6263 112.555 55.7666 114.034 55.9375C117.47 56.3189 122.642 50.8719 123.961 48.9102C124.124 48.6829 124.639 48.8701 124.304 49.9983C123.719 51.8282 120.113 56.3937 116.873 57.1363ZM113.695 32.742C113.241 34.1493 112.879 35.6123 112.572 36.9837C114.346 37.0827 116.359 37.2016 118.424 37.2765C118.555 36.854 118.687 36.4314 118.866 36.0128C119.435 34.3742 119.937 32.3929 120.08 30.6708C120.266 28.4226 119.883 26.6568 118.392 26.6295C116.132 26.5864 114.746 29.3613 113.695 32.742ZM117.866 38.7716L112.206 38.4946C111.8 40.4839 111.538 42.485 111.387 44.3028C111.252 45.9292 111.225 47.42 111.253 48.8192C114.648 45.633 116.532 42.0806 117.866 38.7716ZM137.082 55.8749C137.093 55.1534 137.105 54.4319 137.161 53.7622C137.288 52.2314 137.546 50.8561 137.837 49.6761C138.048 48.8748 139.539 50.0581 139.344 50.6681C139.289 51.9158 139.026 52.7609 138.943 54.3435C140.768 52.6646 142.553 50.8861 144.693 50.0522C145.092 49.8927 145.865 50.4385 146.204 50.9964C146.627 52.2838 146.592 53.2923 146.883 55.0023L151.837 51.6082C152.192 51.3968 153.061 51.9506 153.352 52.5046C153.751 53.501 153.847 55.2429 154.737 56.1355C155.235 56.514 155.789 56.8008 156.459 56.8563C157.99 56.9833 163.398 55.072 164.163 53.9795C164.326 53.7522 164.917 54.1865 164.255 55.1913C163.43 56.4233 160.127 58.5093 157.4 58.2831C156.396 58.1997 155.271 57.8175 154.274 57.0604C153.597 56.5226 153.166 55.9088 152.783 55.2991C152.488 54.793 152.292 54.2469 152.185 53.8045C149.885 55.3958 148.61 56.2533 147.247 57.0072C146.848 57.1668 145.979 56.613 145.736 56.063C145.345 54.971 145.149 53.8469 144.873 51.9456C142.303 53.3218 140.753 55.746 138.752 57.2176C138.342 57.5207 137.178 56.4608 137.082 55.8749ZM170.129 61.1212C167.295 61.0306 163.703 60.2028 162.993 57.1576C162.885 56.7152 162.829 56.2289 162.868 55.7505C163.043 53.6457 164.657 51.6122 167.009 51.711C168.492 51.834 169.76 53.3842 169.118 54.7278C168.37 56.2069 166.217 57.1843 164.543 57.0454C164.611 57.9662 166.158 59.6358 167.833 59.7747C172.329 60.1478 175.956 57.0771 178.139 55.139C179.335 54.0823 179.052 55.1666 178.271 56.4504C176.702 59.1138 173.446 61.2037 170.129 61.1212ZM167.639 53.4009C166.718 52.313 164.642 54.6935 164.591 55.8934C166.675 55.1512 168.122 53.9708 167.639 53.4009Z" fill="black"/>
<path d="M196.206 42.3499C178.768 7.14533 80.354 6.09271 32.3177 21.3564C-45.186 45.9835 39.9879 75.4552 85.6015 77.8775C105.756 78.9478 218.004 86.3557 196.206 42.3499Z" stroke="black" stroke-width="2"/>
<path d="M214.307 33.0139C213.781 32.8447 213.218 33.1337 213.049 33.6595C212.879 34.1852 213.168 34.7485 213.694 34.9177L214 33.9658L214.307 33.0139ZM232.871 100.856C232.999 101.393 233.539 101.724 234.076 101.596L242.829 99.5017C243.366 99.3732 243.697 98.8336 243.569 98.2964C243.44 97.7593 242.901 97.428 242.364 97.5565L234.583 99.4179L232.722 91.6375C232.593 91.1003 232.054 90.7691 231.516 90.8976C230.979 91.0261 230.648 91.5657 230.777 92.1028L232.871 100.856ZM214 33.9658L213.694 34.9177C221.994 37.589 232.879 44.0593 238.654 54.7137C244.383 65.282 245.207 80.2001 232.991 100.1L233.843 100.623L234.695 101.146C247.196 80.7836 246.556 65.0946 240.412 53.7606C234.315 42.5127 222.92 35.7857 214.307 33.0139L214 33.9658Z" fill="black"/>
</svg>
