<svg width="1060" height="689" viewBox="0 0 1060 689" fill="none" xmlns="http://www.w3.org/2000/svg">
<path d="M384.33 18.1917L383.188 18.2234L383.701 36.7875C384.099 36.8612 384.468 36.9498 384.852 37.0521L384.33 18.1917Z" fill="#CCCCCC"/>
<path d="M443.543 36.2053C444.031 35.98 444.519 35.783 445.037 35.5992L444.509 16.5273L442.999 16.5691L443.543 36.2053Z" fill="#CCCCCC"/>
<path d="M177.209 44.9882L176.626 23.9413L175.117 23.9831L175.675 44.1695C176.205 44.4231 176.706 44.6915 177.209 44.9882Z" fill="#CCCCCC"/>
<path d="M956.662 23.3717L956.08 2.36712L954.571 2.4089L955.129 22.5529C955.658 22.8065 956.159 23.075 956.662 23.3717Z" fill="#CCCCCC"/>
<path d="M654.222 31.3344C654.708 31.0386 655.195 30.7711 655.71 30.5309L655.161 10.6972L653.652 10.739L654.222 31.3344Z" fill="#CCCCCC"/>
<path d="M1032.46 595.222L1058.06 594.513L1058.01 593.005L1032.42 593.713L1031.63 565.149L1057.11 564.443L1057.07 562.935L1031.59 563.64L1030.79 535.076L1056.17 534.373L1056.12 532.865L1030.75 533.567L1029.96 505.002L1055.22 504.303L1055.18 502.795L1029.92 503.494L1029.13 474.915L1054.27 474.219L1054.23 472.711L1029.09 473.407L1028.3 444.842L1053.33 444.149L1053.29 442.641L1028.26 443.334L1027.46 414.769L1052.38 414.079L1052.34 412.571L1027.42 413.26L1026.63 384.696L1051.45 384.009L1051.41 382.5L1026.59 383.187L1025.8 354.623L1050.51 353.939L1050.47 352.43L1025.76 353.114L1024.97 324.55L1049.56 323.869L1049.52 322.36L1024.93 323.041L1024.14 294.477L1048.62 293.799L1048.58 292.29L1024.09 292.968L1023.3 264.403L1047.67 263.729L1047.63 262.22L1023.26 262.895L1022.47 234.33L1046.73 233.659L1046.69 232.15L1022.43 232.822L1021.64 204.257L1045.78 203.589L1045.74 202.08L1021.6 202.749L1020.81 174.184L1044.84 173.519L1044.8 172.01L1020.76 172.676L1019.97 144.111L1043.91 143.449L1043.86 141.94L1019.93 142.602L1019.14 114.038L1042.96 113.379L1042.92 111.87L1019.1 112.529L1018.31 83.9507L1042.02 83.2946L1041.97 81.786L1018.27 82.4421L1017.48 53.8776L1041.07 53.2246L1041.03 51.716L1017.43 52.369L1016.64 23.8045L1040.12 23.1546L1040.08 21.646L1016.6 22.2959L1016 0.710396L1014.5 0.752161L1015.09 22.2954L986.52 23.0862L985.924 1.54297L984.415 1.58473L985.011 23.128L957.242 23.8965C957.904 24.3438 958.538 24.8201 959.146 25.3536L985.053 24.6366L985.843 53.2011L958.202 53.9661C957.428 54.5519 956.61 55.0825 955.761 55.5434L955.804 55.5422L956.594 84.1067L928.022 84.8976L927.232 56.333L939.191 56.002C938.304 55.5892 937.458 55.1046 936.667 54.5621L927.19 54.8244L926.399 26.2599L934.142 26.0456C934.719 25.4935 935.326 24.9687 935.961 24.4855L926.358 24.7513L925.761 3.2081L924.252 3.24987L924.849 24.7931L896.276 25.5839L895.68 4.04067L894.171 4.08244L894.767 25.6257L886.404 25.8571C887.066 26.3044 887.7 26.7807 888.308 27.3142L894.809 27.1343L895.6 55.6988L887.364 55.9267C886.589 56.5125 885.772 57.0431 884.923 57.504L895.641 57.2074L896.432 85.7719L867.86 86.5627L867.069 57.9982L868.353 57.9627C867.352 57.4965 866.405 56.9442 865.512 56.3058L865.518 56.5313L836.946 57.3222L836.156 28.7576L863.303 28.0063C864.183 27.1494 865.135 26.3753 866.176 25.7115L865.599 4.87324L864.09 4.91501L864.686 26.4582L836.114 27.249L835.518 5.70581L834.009 5.74757L834.605 27.2908L815.566 27.8177C816.228 28.2651 816.862 28.7414 817.47 29.2748L834.647 28.7994L835.437 57.3639L816.525 57.8873C815.751 58.4732 814.933 59.0038 814.085 59.4646L835.479 58.8725L836.27 87.437L807.697 88.2278L806.96 61.5808C806.594 61.6191 806.228 61.6575 805.861 61.6676C805.72 61.6715 805.593 61.6609 805.466 61.6644L806.203 88.2692L777.63 89.06L776.84 60.4955L797.529 59.9229C796.642 59.51 795.796 59.0255 795.005 58.483L776.798 58.9869L776.007 30.4224L792.479 29.9665C793.057 29.4143 793.663 28.8896 794.299 28.4064L775.966 28.9138L775.369 7.37056L773.86 7.41232L774.457 28.9556L745.885 29.7464L745.288 8.20313L743.779 8.24489L744.368 29.5343C745.173 30.0482 745.937 30.6056 746.646 31.235L774.498 30.4641L775.289 59.0287L746.717 59.8195L746.696 59.0581C745.649 59.976 744.499 60.7557 743.261 61.4249L745.25 61.3698L746.04 89.9343L717.468 90.7251L716.677 62.1606L726.69 61.8835C725.804 61.4706 724.958 60.9861 724.167 60.4436L716.636 60.652L716.288 48.1039C716.153 47.3034 716.061 46.5017 716.038 45.6699C716.015 44.8381 716.062 44.0184 716.153 43.2116L715.845 32.0875L721.641 31.9271C722.219 31.3749 722.825 30.8502 723.461 30.367L715.803 30.5789L715.207 9.03569L713.698 9.07746L714.294 30.6207L685.722 31.4115L685.126 9.86826L683.617 9.91003L684.213 31.4533L673.904 31.7386C674.566 32.1859 675.2 32.6622 675.807 33.1957L684.255 32.9618L685.046 61.5264L674.863 61.8082C674.089 62.394 673.271 62.9246 672.423 63.3855L685.087 63.035L685.878 91.5995L657.306 92.3903L656.524 64.1359C655.396 63.6592 654.321 63.0822 653.328 62.3901L626.392 63.1356L625.601 34.5711L650.803 33.8736C651.38 33.3215 651.987 32.7967 652.623 32.3135L625.559 33.0625L624.964 11.5334L623.455 11.5752L624.051 33.1184L603.066 33.6992C603.728 34.1465 604.362 34.6228 604.969 35.1563L624.093 34.627L624.883 63.1915L604.025 63.7688C603.251 64.3546 602.433 64.8852 601.585 65.3461L624.925 64.7001L625.716 93.2646L597.143 94.0554L596.4 67.1969C595.909 67.2951 595.403 67.3797 594.896 67.436L595.635 94.1113L567.063 94.9021L566.272 66.3376L585.015 65.8188C584.128 65.406 583.282 64.9214 582.491 64.3789L566.23 64.829L565.44 36.2645L579.965 35.8624C580.543 35.3103 581.149 34.7855 581.785 34.3023L565.398 34.7559L564.801 13.1985L563.292 13.2403L563.889 34.7835L535.316 35.5743L534.72 14.0311L533.211 14.0729L533.807 35.6161L532.228 35.6598C533.378 36.4322 534.433 37.3202 535.392 38.3236L535.358 37.0829L563.93 36.2921L564.721 64.8566L536.149 65.6475L536.075 62.9968C535.61 63.5318 535.131 64.053 534.608 64.5331L534.64 65.6892L533.187 65.7294C532.413 66.3152 531.595 66.8458 530.747 67.3067L534.681 67.1978L535.472 95.7623L506.9 96.5531L506.109 67.9886L514.176 67.7653C513.29 67.3525 512.443 66.8679 511.652 66.3254L506.068 66.48L505.89 60.0791C505.208 58.8704 504.678 57.5729 504.273 56.2013L504.559 66.5218L475.986 67.3126L475.196 38.7481L503.768 37.9573L504.012 46.7832C504.328 45.4341 504.814 44.1366 505.415 42.9206L505.277 37.9155L509.127 37.8089C509.704 37.2568 510.311 36.732 510.947 36.2488L505.235 36.4069L504.639 14.8637L503.13 14.9054L503.726 36.4487L475.154 37.2395L474.558 15.6962L473.049 15.738L473.645 37.2812L461.39 37.6204C462.051 38.0677 462.685 38.544 463.293 39.0775L473.687 38.7898L474.477 67.3544L462.349 67.69C461.575 68.2759 460.757 68.8064 459.909 69.2673L474.519 68.8629L475.31 97.4275L446.738 98.2183L445.977 70.7253C445.464 70.5701 444.952 70.415 444.452 70.2172L445.229 98.26L416.656 99.0508L415.866 70.4863L443.338 69.726C442.451 69.3131 441.605 68.8286 440.814 68.2861L415.824 68.9777L415.033 40.4132L438.289 39.7696C438.866 39.2174 439.473 38.6927 440.109 38.2094L414.992 38.9046L414.395 17.3614L412.886 17.4031L413.483 38.9464L390.552 39.5811C391.213 40.0284 391.847 40.5047 392.455 41.0381L413.524 40.455L414.315 69.0195L391.511 69.6507C390.737 70.2365 389.919 70.7671 389.07 71.2279L414.357 70.5281L415.147 99.0926L386.575 99.8834L385.82 72.5878C385.33 72.7424 384.826 72.8834 384.321 72.9961L385.066 99.9252L356.494 100.716L355.703 72.1515L372.5 71.6866C371.613 71.2737 370.767 70.7892 369.976 70.2467L355.662 70.6429L354.871 42.0783L367.451 41.7302C368.028 41.178 368.635 40.6533 369.271 40.1701L354.829 40.5698L354.233 19.0265L352.724 19.0683L353.32 40.6115L327.696 41.3207L327.099 19.7775L325.59 19.8193L326.187 41.3625L319.713 41.5417C320.375 41.989 321.009 42.4653 321.617 42.9987L326.228 42.8711L326.412 49.5117C327.346 51.6306 327.904 53.9573 327.972 56.4105C328.04 58.8638 327.612 61.232 326.796 63.3992L327.019 71.4356L320.673 71.6113C319.899 72.1971 319.081 72.7277 318.232 73.1886L327.061 72.9442L327.851 101.509L299.279 102.3L298.489 73.735L301.662 73.6472C300.775 73.2343 299.929 72.7498 299.138 72.2073L298.447 72.2264L298.433 71.7189C297.9 71.3244 297.38 70.9014 296.887 70.4353L296.938 72.2682L268.366 73.059L267.575 44.4945L296.147 43.7037L296.159 44.1407C296.859 43.4159 297.617 42.7459 298.432 42.1307L297.614 42.1533L297.018 20.6101L295.509 20.6518L296.105 42.1951L267.533 42.9859L266.937 21.4426L265.428 21.4844L266.024 43.0276L248.875 43.5023C249.537 43.9496 250.171 44.4259 250.779 44.9594L266.066 44.5362L266.857 73.1008L249.835 73.5719C249.06 74.1577 248.242 74.6883 247.394 75.1492L266.898 74.6093L267.689 103.174L239.117 103.965L238.38 77.3317C237.871 77.3176 237.363 77.3034 236.867 77.2607L237.608 104.006L209.036 104.797L208.245 76.2327L230.823 75.6078C229.937 75.1949 229.091 74.7104 228.3 74.1679L208.203 74.7241L207.413 46.1596L225.774 45.6514C226.352 45.0992 226.958 44.5745 227.594 44.0913L207.371 44.651L206.775 23.1078L205.266 23.1496L205.862 44.6928L178.037 45.4629C178.699 45.9102 179.333 46.3865 179.94 46.92L205.904 46.2014L206.694 74.7659L178.996 75.5325C178.222 76.1183 177.404 76.6489 176.556 77.1098L176.655 77.1071L177.445 105.672L148.873 106.462L148.083 77.8979L159.985 77.5684C159.099 77.1556 158.253 76.671 157.462 76.1285L148.041 76.3893L147.25 47.8247L154.936 47.612C155.514 47.0599 156.12 46.5351 156.756 46.0519L147.209 46.3162L146.612 24.7729L145.103 24.8147L145.7 46.3579L117.127 47.1487L116.531 25.6055L115.022 25.6473L115.618 47.1905L107.199 47.4235C107.861 47.8708 108.495 48.3471 109.102 48.8806L115.66 48.6991L116.451 77.2636L108.158 77.4931C107.384 78.0789 106.566 78.6095 105.718 79.0704L116.492 78.7722L117.283 107.337L88.7109 108.128L87.9203 79.563L89.1472 79.529C88.175 79.0762 87.2423 78.5235 86.3645 77.9129L86.3695 78.0962L57.7973 78.887L57.0068 50.3225L84.0981 49.5726C84.9914 48.7013 85.9716 47.9123 87.0255 47.234L86.4499 26.4381L84.9409 26.4798L85.5372 48.0231L56.965 48.8139L56.3687 27.2706L54.8597 27.3124L55.456 48.8556L26.8838 49.6464L26.2876 28.1032L24.7786 28.145L25.3748 49.6882L0.596291 50.374L0.638045 51.8826L25.2897 51.2003L26.0803 79.7648L1.42864 80.4471L1.47039 81.9557L26.122 81.2734L26.9126 109.838L2.26098 110.52L2.30274 112.029L26.9544 111.347L27.7453 139.925L3.09372 140.607L3.13547 142.116L27.7871 141.434L28.5777 169.998L3.92606 170.681L3.96782 172.189L28.6194 171.507L29.41 200.071L4.75841 200.754L4.80016 202.262L29.4518 201.58L30.2424 230.144L5.59076 230.827L5.63251 232.335L30.2841 231.653L31.0747 260.218L6.4231 260.9L6.46486 262.408L31.1165 261.726L31.9071 290.291L7.25545 290.973L7.2972 292.482L31.9488 291.799L32.7394 320.364L8.08779 321.046L8.12955 322.555L32.7812 321.872L33.5718 350.437L8.92014 351.119L8.96189 352.628L33.6135 351.946L34.4041 380.51L9.75248 381.192L9.79424 382.701L34.4459 382.019L35.2364 410.583L10.5848 411.265L10.6266 412.774L35.2782 412.092L36.0688 440.656L11.4172 441.339L11.4589 442.847L36.1105 442.165L36.9011 470.729L12.2495 471.412L12.2913 472.92L36.9429 472.238L37.7335 500.802L13.0819 501.485L13.1236 502.993L37.7752 502.311L38.5662 530.89L13.9146 531.572L13.9564 533.081L38.608 532.398L39.3986 560.963L14.7469 561.645L14.7887 563.154L39.4403 562.471L40.2309 591.036L15.5793 591.718L15.621 593.227L40.2727 592.544L41.0633 621.109L16.4116 621.791L16.4534 623.3L41.105 622.618L41.8956 651.182L17.244 651.864L17.2857 653.373L41.9374 652.691L42.6499 678.435C43.1529 678.252 43.6422 678.083 44.1452 677.9L43.4463 652.649L72.0185 651.858L72.5184 669.919C73.0253 669.877 73.5181 669.835 74.0255 669.807L73.5275 651.816L102.1 651.026L102.706 672.921C103.245 672.525 103.74 672.032 104.174 671.413L103.608 650.97L132.18 650.179L132.939 677.573C133.438 677.771 133.952 677.968 134.465 678.166L133.689 650.137L162.262 649.346L162.971 674.992C163.472 674.71 163.958 674.429 164.458 674.147L163.771 649.305L192.343 648.514L192.734 662.641C193.228 662.655 193.723 662.684 194.246 662.726L193.852 648.472L222.424 647.681L223.016 669.069C223.542 669.224 224.041 669.394 224.539 669.549L223.933 647.639L252.505 646.849L253.081 667.645C253.588 667.631 254.082 667.631 254.591 667.645L254.014 646.807L282.586 646.016L283.262 670.421L284.778 670.633L284.095 645.974L312.668 645.183L313.458 673.748L307.902 673.902L316.814 675.165L343.581 674.424L343.707 678.964L345.223 679.176L345.09 674.382L370.715 673.673L370.794 676.535L372.289 675.986L372.223 673.617L379.317 673.421L383.802 671.787L372.182 672.109L371.391 643.544L399.963 642.753L400.598 665.678L402.093 665.129L401.472 642.712L430.044 641.921L430.648 663.732L432.165 663.986L431.553 641.865L460.125 641.074L460.553 656.541L462.083 657.246L461.634 641.032L490.206 640.241L490.744 659.684C491.236 659.586 491.741 659.487 492.246 659.388L491.716 640.214L520.288 639.423L520.911 661.953C521.425 662.136 521.924 662.334 522.438 662.532L521.797 639.381L550.369 638.59L551.16 667.155L534.222 667.624C535.295 668.13 536.296 668.61 537.183 669.052L551.216 668.663L551.224 668.959L559.593 666.922L552.683 667.113L551.892 638.548L580.464 637.757L581.255 666.322L564.966 666.773L568.322 668.19L581.297 667.831L581.44 672.991C581.83 672.839 582.319 672.656 582.934 672.427L582.806 667.789L596.923 667.398C598.53 666.846 600.18 666.292 601.831 665.752L582.764 666.28L581.973 637.716L610.546 636.925L611.264 662.895C611.769 662.754 612.273 662.627 612.764 662.501L612.055 636.897L640.627 636.106L641.394 663.811C641.89 663.896 642.401 663.981 642.911 664.065L642.136 636.065L670.708 635.274L671.499 663.838L645.733 664.551C648.087 664.966 650.485 665.408 652.883 665.863L671.541 665.347L671.658 669.605C672.17 669.718 672.68 669.816 673.178 669.93L673.05 665.305L701.622 664.514L701.731 668.462C702.22 668.265 702.722 668.068 703.225 667.87L703.131 664.473L712.551 664.212C713.92 663.68 715.316 663.134 716.741 662.586L703.089 662.964L702.298 634.399L730.871 633.609L731.518 656.985C732.021 656.802 732.51 656.619 733.013 656.435L732.38 633.567L760.952 632.776L761.335 646.621C761.839 646.466 762.343 646.311 762.833 646.171L762.461 632.734L791.033 631.944L791.338 642.955C791.847 642.997 792.342 643.04 792.851 643.082L792.542 631.902L821.114 631.111L821.448 643.18L822.938 642.433L822.623 631.069L851.195 630.278L851.542 642.812L853.089 644.124L852.704 630.237L881.276 629.446L881.909 652.286L883.384 651.046L882.786 629.418L911.358 628.627L912.01 652.201L913.527 652.427L912.867 628.572L941.439 627.781L942.229 656.345L939.606 656.418L947.941 657.697L962.777 657.286L963.877 655.746L943.724 656.304L942.934 627.739L971.506 626.949L971.991 644.459L973.445 642.444L973.015 626.907L984.861 626.579L984.983 626.406L985.312 626.566L1001.6 626.116L1001.84 634.801L1003.37 635.562L1003.11 626.074L1031.68 625.283L1032.21 644.19C1032.74 644.556 1033.26 644.909 1033.74 645.234L1033.19 625.227L1056.39 624.585L1057.56 623.043L1033.15 623.719L1032.36 595.154L1032.46 595.222ZM71.9779 650.392L43.4058 651.183L42.6152 622.618L71.1874 621.827L71.9779 650.392ZM71.1456 620.319L42.5734 621.11L41.7828 592.545L70.355 591.754L71.1456 620.319ZM70.3133 590.246L41.7411 591.036L40.9505 562.472L69.5227 561.681L70.3133 590.246ZM69.4805 560.158L40.9083 560.949L40.1177 532.385L68.6899 531.594L69.4805 560.158ZM68.6482 530.085L40.076 530.876L39.285 502.297L67.8572 501.507L68.6482 530.085ZM67.8158 500.012L39.2436 500.803L38.4531 472.238L67.0252 471.448L67.8158 500.012ZM66.9835 469.939L38.4113 470.73L37.6207 442.165L66.1929 441.375L66.9835 469.939ZM66.1507 439.852L37.5786 440.643L36.788 412.078L65.3602 411.287L66.1507 439.852ZM65.3184 409.779L36.7462 410.57L35.9556 382.005L64.5278 381.214L65.3184 409.779ZM64.4861 379.706L35.9139 380.496L35.1233 351.932L63.6955 351.141L64.4861 379.706ZM63.6537 349.633L35.0815 350.423L34.2909 321.859L62.8631 321.068L63.6537 349.633ZM62.821 319.545L34.2488 320.336L33.4582 291.772L62.0304 290.981L62.821 319.545ZM61.9886 289.472L33.4164 290.263L32.6259 261.698L61.198 260.908L61.9886 289.472ZM61.1563 259.399L32.5841 260.19L31.7935 231.625L60.3657 230.835L61.1563 259.399ZM60.3239 229.326L31.7518 230.117L30.9612 201.552L59.5333 200.761L60.3239 229.326ZM59.4912 199.239L30.919 200.03L30.1284 171.465L58.7006 170.674L59.4912 199.239ZM58.6589 169.166L30.0867 169.956L29.2961 141.392L57.8683 140.601L58.6589 169.166ZM57.8265 139.093L29.2543 139.883L28.4633 111.305L57.0355 110.514L57.8265 139.093ZM56.9942 109.019L28.422 109.81L27.6314 81.2457L56.2036 80.4549L56.9942 109.019ZM56.1614 78.9323L27.5892 79.7231L26.7987 51.1585L55.3708 50.3677L56.1614 78.9323ZM102.059 649.559L73.4869 650.35L72.6964 621.786L101.269 620.995L102.059 649.559ZM101.227 619.486L72.6546 620.277L71.864 591.712L100.436 590.922L101.227 619.486ZM100.394 589.413L71.8223 590.204L71.0317 561.639L99.6038 560.849L100.394 589.413ZM99.5617 559.326L70.9895 560.117L70.1989 531.552L98.7711 530.761L99.5617 559.326ZM98.7293 529.253L70.1572 530.044L69.3662 501.465L97.9384 500.674L98.7293 529.253ZM97.897 499.18L69.3248 499.97L68.5342 471.406L97.1064 470.615L97.897 499.18ZM97.0647 469.107L68.4925 469.897L67.7019 441.333L96.2741 440.542L97.0647 469.107ZM96.2319 439.019L67.6597 439.81L66.8692 411.246L95.4413 410.455L96.2319 439.019ZM95.3996 408.946L66.8274 409.737L66.0368 381.172L94.609 380.382L95.3996 408.946ZM94.5672 378.873L65.9951 379.664L65.2045 351.099L93.7766 350.309L94.5672 378.873ZM93.7349 348.8L65.1627 349.591L64.3721 321.026L92.9443 320.235L93.7349 348.8ZM92.9021 318.713L64.33 319.504L63.5394 290.939L92.1116 290.148L92.9021 318.713ZM92.0698 288.64L63.4976 289.43L62.707 260.866L91.2792 260.075L92.0698 288.64ZM91.2375 258.567L62.6653 259.357L61.8747 230.793L90.4469 230.002L91.2375 258.567ZM90.4051 228.493L61.8329 229.284L61.0423 200.72L89.6145 199.929L90.4051 228.493ZM89.5724 198.406L61.0002 199.197L60.2096 170.633L88.7818 169.842L89.5724 198.406ZM88.74 168.333L60.1679 169.124L59.3773 140.559L87.9494 139.769L88.74 168.333ZM87.9077 138.26L59.3355 139.051L58.5445 110.472L87.1167 109.681L87.9077 138.26ZM87.0753 108.187L58.5032 108.978L57.7126 80.4132L86.2847 79.6224L87.0753 108.187ZM132.154 648.726L103.582 649.517L102.792 620.953L131.364 620.162L132.154 648.726ZM131.322 618.653L102.75 619.444L101.959 590.879L130.531 590.089L131.322 618.653ZM130.49 588.58L101.918 589.371L101.127 560.806L129.699 560.016L130.49 588.58ZM129.657 558.493L101.085 559.284L100.294 530.719L128.866 529.928L129.657 558.493ZM128.825 528.42L100.252 529.211L99.4615 500.632L128.034 499.841L128.825 528.42ZM127.992 498.347L99.4201 499.137L98.6295 470.573L127.202 469.782L127.992 498.347ZM127.16 468.274L98.5878 469.064L97.7972 440.5L126.369 439.709L127.16 468.274ZM126.327 438.186L97.755 438.977L96.9644 410.413L125.537 409.622L126.327 438.186ZM125.495 408.113L96.9227 408.904L96.1321 380.34L124.704 379.549L125.495 408.113ZM124.663 378.04L96.0903 378.831L95.2997 350.266L123.872 349.476L124.663 378.04ZM123.83 347.967L95.258 348.758L94.4674 320.193L123.04 319.403L123.83 347.967ZM122.997 317.88L94.4252 318.671L93.6347 290.106L122.207 289.315L122.997 317.88ZM122.165 287.807L93.5929 288.598L92.8023 260.033L121.374 259.242L122.165 287.807ZM121.333 257.734L92.7606 258.524L91.97 229.96L120.542 229.169L121.333 257.734ZM120.5 227.66L91.9282 228.451L91.1376 199.887L119.71 199.096L120.5 227.66ZM119.668 197.573L91.0955 198.364L90.3049 169.8L118.877 169.009L119.668 197.573ZM118.835 167.5L90.2631 168.291L89.4725 139.726L118.045 138.936L118.835 167.5ZM118.003 137.427L89.4308 138.218L88.6398 109.639L117.212 108.848L118.003 137.427ZM162.236 647.894L133.663 648.685L132.873 620.12L161.445 619.329L162.236 647.894ZM161.403 617.821L132.831 618.611L132.04 590.047L160.613 589.256L161.403 617.821ZM160.571 587.748L131.999 588.538L131.208 559.974L159.78 559.183L160.571 587.748ZM159.738 557.66L131.166 558.451L130.375 529.887L158.948 529.096L159.738 557.66ZM158.906 527.587L130.334 528.378L129.543 499.799L158.115 499.009L158.906 527.587ZM158.073 497.514L129.501 498.305L128.711 469.74L157.283 468.95L158.073 497.514ZM157.241 467.441L128.669 468.232L127.878 439.667L156.451 438.876L157.241 467.441ZM156.408 437.354L127.836 438.145L127.046 409.58L155.618 408.789L156.408 437.354ZM155.576 407.281L127.004 408.071L126.213 379.507L154.785 378.716L155.576 407.281ZM154.744 377.208L126.172 377.998L125.381 349.434L153.953 348.643L154.744 377.208ZM153.911 347.134L125.339 347.925L124.549 319.361L153.121 318.57L153.911 347.134ZM153.079 317.047L124.506 317.838L123.716 289.274L152.288 288.483L153.079 317.047ZM152.246 286.974L123.674 287.765L122.883 259.2L151.456 258.41L152.246 286.974ZM151.414 256.901L122.842 257.692L122.051 229.127L150.623 228.337L151.414 256.901ZM150.582 226.828L122.009 227.619L121.219 199.054L149.791 198.263L150.582 226.828ZM149.749 196.741L121.177 197.532L120.386 168.967L148.958 168.176L149.749 196.741ZM148.916 166.668L120.344 167.458L119.554 138.894L148.126 138.103L148.916 166.668ZM148.084 136.594L119.512 137.385L118.721 108.807L147.293 108.016L148.084 136.594ZM147.252 106.521L118.68 107.312L117.889 78.7476L146.461 77.9568L147.252 106.521ZM146.419 76.4342L117.847 77.225L117.056 48.6604L145.628 47.8696L146.419 76.4342ZM192.317 647.061L163.745 647.852L162.954 619.287L191.526 618.497L192.317 647.061ZM191.484 616.988L162.912 617.779L162.122 589.214L190.694 588.424L191.484 616.988ZM190.652 586.915L162.08 587.706L161.289 559.141L189.861 558.35L190.652 586.915ZM189.819 556.828L161.247 557.619L160.457 529.054L189.029 528.263L189.819 556.828ZM188.987 526.755L160.415 527.545L159.624 498.967L188.196 498.176L188.987 526.755ZM188.155 496.682L159.582 497.472L158.792 468.908L187.364 468.117L188.155 496.682ZM187.322 466.608L158.75 467.399L157.96 438.835L186.532 438.044L187.322 466.608ZM186.49 436.521L157.917 437.312L157.127 408.747L185.699 407.957L186.49 436.521ZM185.657 406.448L157.085 407.239L156.294 378.674L184.867 377.884L185.657 406.448ZM184.825 376.375L156.253 377.166L155.462 348.601L184.034 347.81L184.825 376.375ZM183.993 346.302L155.42 347.093L154.63 318.528L183.202 317.737L183.993 346.302ZM183.16 316.215L154.588 317.005L153.797 288.441L182.369 287.65L183.16 316.215ZM182.327 286.142L153.755 286.932L152.965 258.368L181.537 257.577L182.327 286.142ZM181.495 256.068L152.923 256.859L152.132 228.295L180.705 227.504L181.495 256.068ZM180.663 225.995L152.091 226.786L151.3 198.222L179.872 197.431L180.663 225.995ZM179.83 195.908L151.258 196.699L150.467 168.134L179.039 167.344L179.83 195.908ZM178.998 165.835L150.425 166.626L149.635 138.061L178.207 137.27L178.998 165.835ZM178.165 135.762L149.593 136.553L148.802 107.974L177.374 107.183L178.165 135.762ZM222.398 646.229L193.826 647.019L193.035 618.455L221.607 617.664L222.398 646.229ZM221.566 616.156L192.993 616.946L192.203 588.382L220.775 587.591L221.566 616.156ZM220.733 586.082L192.161 586.873L191.37 558.309L219.943 557.518L220.733 586.082ZM219.9 555.995L191.328 556.786L190.538 528.221L219.11 527.431L219.9 555.995ZM219.068 525.922L190.496 526.713L189.705 498.134L218.277 497.343L219.068 525.922ZM218.236 495.849L189.664 496.64L188.873 468.075L217.445 467.284L218.236 495.849ZM217.403 465.776L188.831 466.567L188.041 438.002L216.613 437.211L217.403 465.776ZM216.571 435.689L187.999 436.479L187.208 407.915L215.78 407.124L216.571 435.689ZM215.738 405.616L187.166 406.406L186.376 377.842L214.948 377.051L215.738 405.616ZM214.906 375.542L186.334 376.333L185.543 347.769L214.115 346.978L214.906 375.542ZM214.074 345.469L185.502 346.26L184.711 317.696L213.283 316.905L214.074 345.469ZM213.241 315.382L184.669 316.173L183.878 287.608L212.45 286.818L213.241 315.382ZM212.409 285.309L183.836 286.1L183.046 257.535L211.618 256.744L212.409 285.309ZM211.576 255.236L183.004 256.027L182.213 227.462L210.786 226.671L211.576 255.236ZM210.744 225.163L182.172 225.954L181.381 197.389L209.953 196.598L210.744 225.163ZM209.911 195.076L181.339 195.866L180.548 167.302L209.121 166.511L209.911 195.076ZM209.079 165.002L180.507 165.793L179.716 137.229L208.288 136.438L209.079 165.002ZM208.246 134.929L179.674 135.72L178.883 107.142L207.455 106.351L208.246 134.929ZM207.414 104.856L178.842 105.647L178.051 77.0825L206.624 76.2917L207.414 104.856ZM252.493 645.396L223.921 646.186L223.13 617.622L251.703 616.831L252.493 645.396ZM251.661 615.323L223.089 616.113L222.298 587.549L250.87 586.758L251.661 615.323ZM250.829 585.249L222.256 586.04L221.466 557.476L250.038 556.685L250.829 585.249ZM249.996 555.162L221.424 555.953L220.633 527.389L249.205 526.598L249.996 555.162ZM249.163 525.089L220.591 525.88L219.8 497.301L248.372 496.51L249.163 525.089ZM248.331 495.016L219.759 495.807L218.968 467.242L247.54 466.451L248.331 495.016ZM247.499 464.943L218.927 465.734L218.136 437.169L246.708 436.378L247.499 464.943ZM246.666 434.856L218.094 435.646L217.303 407.082L245.875 406.291L246.666 434.856ZM245.834 404.783L217.261 405.573L216.471 377.009L245.043 376.218L245.834 404.783ZM245.001 374.709L216.429 375.5L215.639 346.936L244.211 346.145L245.001 374.709ZM244.169 344.636L215.597 345.427L214.806 316.863L243.378 316.072L244.169 344.636ZM243.336 314.549L214.764 315.34L213.973 286.775L242.546 285.985L243.336 314.549ZM242.504 284.476L213.932 285.267L213.141 256.702L241.713 255.911L242.504 284.476ZM241.672 254.403L213.099 255.194L212.309 226.629L240.881 225.838L241.672 254.403ZM240.839 224.33L212.267 225.121L211.476 196.556L240.049 195.765L240.839 224.33ZM240.006 194.243L211.434 195.033L210.644 166.469L239.216 165.678L240.006 194.243ZM239.174 164.169L210.602 164.96L209.811 136.396L238.384 135.605L239.174 164.169ZM238.342 134.096L209.77 134.887L208.979 106.309L237.551 105.518L238.342 134.096ZM282.574 644.563L254.002 645.354L253.212 616.789L281.784 615.999L282.574 644.563ZM281.742 614.49L253.17 615.281L252.379 586.716L280.951 585.925L281.742 614.49ZM280.91 584.417L252.337 585.208L251.547 556.643L280.119 555.852L280.91 584.417ZM280.077 554.33L251.505 555.12L250.714 526.556L279.286 525.765L280.077 554.33ZM279.245 524.257L250.672 525.047L249.881 496.469L278.454 495.678L279.245 524.257ZM278.412 494.183L249.84 494.974L249.049 466.41L277.622 465.619L278.412 494.183ZM277.58 464.11L249.008 464.901L248.217 436.337L276.789 435.546L277.58 464.11ZM276.747 434.023L248.175 434.814L247.384 406.249L275.957 405.459L276.747 434.023ZM275.915 403.95L247.343 404.741L246.552 376.176L275.124 375.385L275.915 403.95ZM275.082 373.877L246.51 374.668L245.72 346.103L274.292 345.312L275.082 373.877ZM274.25 343.804L245.678 344.595L244.887 316.03L273.46 315.239L274.25 343.804ZM273.417 313.717L244.845 314.507L244.055 285.943L272.627 285.152L273.417 313.717ZM272.585 283.643L244.013 284.434L243.222 255.87L271.794 255.079L272.585 283.643ZM271.753 253.57L243.181 254.361L242.39 225.797L270.962 225.006L271.753 253.57ZM270.92 223.497L242.348 224.288L241.558 195.724L270.13 194.933L270.92 223.497ZM270.088 193.41L241.515 194.201L240.725 165.636L269.297 164.846L270.088 193.41ZM269.255 163.337L240.683 164.128L239.892 135.563L268.465 134.772L269.255 163.337ZM268.423 133.264L239.851 134.055L239.06 105.476L267.632 104.685L268.423 133.264ZM312.656 643.73L284.083 644.521L283.293 615.957L311.865 615.166L312.656 643.73ZM311.823 613.657L283.251 614.448L282.46 585.884L311.033 585.093L311.823 613.657ZM310.991 583.584L282.419 584.375L281.628 555.811L310.2 555.02L310.991 583.584ZM310.158 553.497L281.586 554.288L280.795 525.723L309.368 524.933L310.158 553.497ZM309.326 523.424L280.754 524.215L279.963 495.636L308.535 494.845L309.326 523.424ZM308.493 493.351L279.921 494.142L279.131 465.577L307.703 464.786L308.493 493.351ZM307.661 463.278L279.089 464.069L278.298 435.504L306.87 434.713L307.661 463.278ZM306.828 433.191L278.256 433.981L277.466 405.417L306.038 404.626L306.828 433.191ZM305.996 403.117L277.424 403.908L276.633 375.344L305.205 374.553L305.996 403.117ZM305.164 373.044L276.591 373.835L275.801 345.271L304.373 344.48L305.164 373.044ZM304.331 342.971L275.759 343.762L274.969 315.198L303.541 314.407L304.331 342.971ZM303.499 312.884L274.926 313.675L274.136 285.11L302.708 284.319L303.499 312.884ZM302.666 282.811L274.094 283.602L273.303 255.037L301.876 254.246L302.666 282.811ZM301.834 252.738L273.262 253.529L272.471 224.964L301.043 224.173L301.834 252.738ZM301.002 222.665L272.429 223.455L271.639 194.891L300.211 194.1L301.002 222.665ZM300.169 192.577L271.597 193.368L270.806 164.804L299.378 164.013L300.169 192.577ZM299.336 162.504L270.764 163.295L269.974 134.731L298.546 133.94L299.336 162.504ZM298.504 132.431L269.932 133.222L269.141 104.643L297.713 103.853L298.504 132.431ZM297.672 102.358L269.1 103.149L268.309 74.5844L296.881 73.7936L297.672 102.358ZM343.569 672.971L314.997 673.762L314.206 645.197L342.778 644.407L343.569 672.971ZM342.737 642.898L314.165 643.689L313.374 615.124L341.946 614.333L342.737 642.898ZM341.904 612.825L313.332 613.616L312.542 585.051L341.114 584.26L341.904 612.825ZM341.072 582.752L312.5 583.543L311.709 554.978L340.281 554.187L341.072 582.752ZM340.239 552.665L311.667 553.455L310.877 524.891L339.449 524.1L340.239 552.665ZM339.407 522.591L310.835 523.382L310.044 494.804L338.616 494.013L339.407 522.591ZM338.575 492.518L310.002 493.309L309.212 464.745L337.784 463.954L338.575 492.518ZM337.742 462.445L309.17 463.236L308.379 434.671L336.952 433.881L337.742 462.445ZM336.91 432.358L308.337 433.149L307.547 404.584L336.119 403.793L336.91 432.358ZM336.077 402.285L307.505 403.076L306.714 374.511L335.287 373.72L336.077 402.285ZM335.245 372.212L306.673 373.003L305.882 344.438L334.454 343.647L335.245 372.212ZM334.412 342.139L305.84 342.929L305.05 314.365L333.622 313.574L334.412 342.139ZM333.58 312.051L305.008 312.842L304.217 284.278L332.789 283.487L333.58 312.051ZM332.747 281.978L304.175 282.769L303.385 254.205L331.957 253.414L332.747 281.978ZM331.915 251.905L303.343 252.696L302.552 224.132L331.124 223.341L331.915 251.905ZM331.083 221.832L302.511 222.623L301.72 194.058L330.292 193.268L331.083 221.832ZM330.25 191.745L301.678 192.536L300.887 163.971L329.459 163.18L330.25 191.745ZM329.418 161.672L300.845 162.463L300.055 133.898L328.627 133.107L329.418 161.672ZM328.585 131.599L300.013 132.389L299.222 103.811L327.794 103.02L328.585 131.599ZM370.717 672.22L345.092 672.929L344.302 644.364L369.926 643.655L370.717 672.22ZM369.885 642.147L344.26 642.856L343.469 614.291L369.094 613.582L369.885 642.147ZM369.052 612.073L343.427 612.783L342.637 584.218L368.262 583.509L369.052 612.073ZM368.22 582L342.595 582.71L341.805 554.145L367.429 553.436L368.22 582ZM367.387 551.913L341.762 552.622L340.972 524.058L366.597 523.349L367.387 551.913ZM366.555 521.84L340.93 522.549L340.139 493.971L365.764 493.261L366.555 521.84ZM365.722 491.767L340.098 492.476L339.307 463.912L364.932 463.202L365.722 491.767ZM364.89 461.694L339.265 462.403L338.475 433.838L364.099 433.129L364.89 461.694ZM364.057 431.607L338.433 432.316L337.642 403.751L363.267 403.042L364.057 431.607ZM363.225 401.533L337.6 402.243L336.81 373.678L362.434 372.969L363.225 401.533ZM362.393 371.46L336.768 372.17L335.977 343.605L361.602 342.896L362.393 371.46ZM361.56 341.387L335.936 342.096L335.145 313.532L360.77 312.823L361.56 341.387ZM360.728 311.3L335.103 312.009L334.312 283.445L359.937 282.736L360.728 311.3ZM359.895 281.227L334.27 281.936L333.48 253.372L359.105 252.662L359.895 281.227ZM359.063 251.154L333.438 251.863L332.648 223.299L358.272 222.589L359.063 251.154ZM358.231 221.081L332.606 221.79L331.815 193.225L357.44 192.516L358.231 221.081ZM357.398 190.994L331.773 191.703L330.982 163.138L356.607 162.429L357.398 190.994ZM356.565 160.92L330.941 161.63L330.15 133.065L355.775 132.356L356.565 160.92ZM355.733 130.847L330.108 131.557L329.317 102.978L354.942 102.269L355.733 130.847ZM354.901 100.774L329.276 101.483L328.485 72.9189L354.11 72.2097L354.901 100.774ZM354.068 70.687L328.443 71.3962L327.653 42.8317L353.277 42.1225L354.068 70.687ZM399.966 641.314L371.393 642.105L370.603 613.54L399.175 612.749L399.966 641.314ZM399.133 611.241L370.561 612.032L369.771 583.467L398.343 582.676L399.133 611.241ZM398.301 581.168L369.729 581.959L368.938 553.394L397.51 552.603L398.301 581.168ZM397.468 551.081L368.896 551.871L368.105 523.307L396.678 522.516L397.468 551.081ZM396.636 521.007L368.064 521.798L367.273 493.22L395.845 492.429L396.636 521.007ZM395.804 490.934L367.231 491.725L366.441 463.161L395.013 462.37L395.804 490.934ZM394.971 460.861L366.399 461.652L365.608 433.088L394.181 432.297L394.971 460.861ZM394.139 430.774L365.566 431.565L364.776 403L393.348 402.209L394.139 430.774ZM393.306 400.701L364.734 401.492L363.943 372.927L392.516 372.136L393.306 400.701ZM392.474 370.628L363.902 371.419L363.111 342.854L391.683 342.063L392.474 370.628ZM391.641 340.555L363.069 341.345L362.279 312.781L390.851 311.99L391.641 340.555ZM390.809 310.467L362.237 311.258L361.446 282.694L390.018 281.903L390.809 310.467ZM389.976 280.394L361.404 281.185L360.614 252.621L389.186 251.83L389.976 280.394ZM389.144 250.321L360.572 251.112L359.781 222.548L388.353 221.757L389.144 250.321ZM388.312 220.248L359.739 221.039L358.949 192.474L387.521 191.684L388.312 220.248ZM387.479 190.161L358.907 190.952L358.116 162.387L386.688 161.596L387.479 190.161ZM386.647 160.088L358.074 160.879L357.284 132.314L385.856 131.523L386.647 160.088ZM385.814 130.015L357.242 130.806L356.451 102.227L385.023 101.436L385.814 130.015ZM430.047 640.481L401.475 641.272L400.684 612.708L429.256 611.917L430.047 640.481ZM429.215 610.408L400.642 611.199L399.852 582.635L428.424 581.844L429.215 610.408ZM428.382 580.335L399.81 581.126L399.019 552.561L427.592 551.771L428.382 580.335ZM427.549 550.248L398.977 551.039L398.187 522.474L426.759 521.683L427.549 550.248ZM426.717 520.175L398.145 520.966L397.354 492.387L425.926 491.596L426.717 520.175ZM425.885 490.102L397.313 490.893L396.522 462.328L425.094 461.537L425.885 490.102ZM425.052 460.029L396.48 460.819L395.69 432.255L424.262 431.464L425.052 460.029ZM424.22 429.941L395.648 430.732L394.857 402.168L423.429 401.377L424.22 429.941ZM423.387 399.868L394.815 400.659L394.025 372.095L422.597 371.304L423.387 399.868ZM422.555 369.795L393.983 370.586L393.192 342.022L421.764 341.231L422.555 369.795ZM421.723 339.722L393.15 340.513L392.36 311.948L420.932 311.158L421.723 339.722ZM420.89 309.635L392.318 310.426L391.527 281.861L420.099 281.07L420.89 309.635ZM420.058 279.562L391.485 280.353L390.695 251.788L419.267 250.997L420.058 279.562ZM419.225 249.489L390.653 250.279L389.862 221.715L418.435 220.924L419.225 249.489ZM418.393 219.416L389.821 220.206L389.03 191.642L417.602 190.851L418.393 219.416ZM417.56 189.328L388.988 190.119L388.197 161.555L416.77 160.764L417.56 189.328ZM416.728 159.255L388.156 160.046L387.365 131.482L415.937 130.691L416.728 159.255ZM415.895 129.182L387.323 129.973L386.532 101.394L415.104 100.604L415.895 129.182ZM460.128 639.649L431.556 640.44L430.765 611.875L459.337 611.084L460.128 639.649ZM459.296 609.576L430.724 610.367L429.933 581.802L458.505 581.011L459.296 609.576ZM458.463 579.503L429.891 580.293L429.101 551.729L457.673 550.938L458.463 579.503ZM457.631 549.415L429.058 550.206L428.268 521.642L456.84 520.851L457.631 549.415ZM456.798 519.342L428.226 520.133L427.435 491.554L456.007 490.764L456.798 519.342ZM455.966 489.269L427.394 490.06L426.603 461.495L455.175 460.705L455.966 489.269ZM455.134 459.196L426.561 459.987L425.771 431.422L454.343 430.632L455.134 459.196ZM454.301 429.109L425.729 429.9L424.938 401.335L453.51 400.544L454.301 429.109ZM453.469 399.036L424.896 399.827L424.106 371.262L452.678 370.471L453.469 399.036ZM452.636 368.963L424.064 369.753L423.273 341.189L451.846 340.398L452.636 368.963ZM451.804 338.89L423.232 339.68L422.441 311.116L451.013 310.325L451.804 338.89ZM450.971 308.802L422.399 309.593L421.608 281.029L450.181 280.238L450.971 308.802ZM450.139 278.729L421.567 279.52L420.776 250.956L449.348 250.165L450.139 278.729ZM449.306 248.656L420.734 249.447L419.944 220.882L448.516 220.092L449.306 248.656ZM448.474 218.583L419.902 219.374L419.111 190.809L447.683 190.018L448.474 218.583ZM447.641 188.496L419.069 189.287L418.279 160.722L446.851 159.931L447.641 188.496ZM446.809 158.423L418.237 159.213L417.446 130.649L446.018 129.858L446.809 158.423ZM445.977 128.35L417.404 129.14L416.613 100.562L445.186 99.771L445.977 128.35ZM490.223 638.816L461.651 639.607L460.861 611.042L489.433 610.251L490.223 638.816ZM489.391 608.743L460.819 609.534L460.028 580.969L488.6 580.178L489.391 608.743ZM488.559 578.67L459.986 579.46L459.196 550.896L487.768 550.105L488.559 578.67ZM487.726 548.582L459.154 549.373L458.363 520.809L486.935 520.018L487.726 548.582ZM486.894 518.509L458.321 519.3L457.53 490.722L486.103 489.931L486.894 518.509ZM486.061 488.436L457.489 489.227L456.698 460.663L485.271 459.872L486.061 488.436ZM485.229 458.363L456.657 459.154L455.866 430.589L484.438 429.799L485.229 458.363ZM484.396 428.276L455.824 429.067L455.033 400.502L483.606 399.711L484.396 428.276ZM483.564 398.203L454.992 398.994L454.201 370.429L482.773 369.638L483.564 398.203ZM482.731 368.13L454.159 368.921L453.369 340.356L481.941 339.565L482.731 368.13ZM481.899 338.057L453.327 338.847L452.536 310.283L481.109 309.492L481.899 338.057ZM481.066 307.969L452.494 308.76L451.704 280.196L480.276 279.405L481.066 307.969ZM480.234 277.896L451.662 278.687L450.871 250.123L479.443 249.332L480.234 277.896ZM479.402 247.823L450.829 248.614L450.039 220.049L478.611 219.259L479.402 247.823ZM478.569 217.75L449.997 218.541L449.207 189.976L477.779 189.186L478.569 217.75ZM477.737 187.663L449.164 188.454L448.374 159.889L476.946 159.098L477.737 187.663ZM476.904 157.59L448.332 158.381L447.541 129.816L476.114 129.025L476.904 157.59ZM476.072 127.517L447.5 128.307L446.709 99.7288L475.281 98.938L476.072 127.517ZM520.305 637.983L491.732 638.774L490.942 610.21L519.514 609.419L520.305 637.983ZM519.472 607.91L490.9 608.701L490.109 580.136L518.682 579.346L519.472 607.91ZM518.64 577.837L490.068 578.628L489.277 550.063L517.849 549.273L518.64 577.837ZM517.807 547.75L489.235 548.541L488.444 519.976L517.017 519.185L517.807 547.75ZM516.975 517.677L488.403 518.468L487.612 489.889L516.184 489.098L516.975 517.677ZM516.142 487.604L487.57 488.394L486.78 459.83L515.352 459.039L516.142 487.604ZM515.31 457.531L486.738 458.321L485.947 429.757L514.519 428.966L515.31 457.531ZM514.477 427.443L485.905 428.234L485.115 399.67L513.687 398.879L514.477 427.443ZM513.645 397.37L485.073 398.161L484.282 369.597L512.854 368.806L513.645 397.37ZM512.813 367.297L484.24 368.088L483.45 339.523L512.022 338.733L512.813 367.297ZM511.98 337.224L483.408 338.015L482.618 309.45L511.19 308.66L511.98 337.224ZM511.148 307.137L482.575 307.928L481.785 279.363L510.357 278.572L511.148 307.137ZM510.315 277.064L481.743 277.855L480.952 249.29L509.525 248.499L510.315 277.064ZM509.483 246.991L480.911 247.781L480.12 219.217L508.692 218.426L509.483 246.991ZM508.651 216.917L480.078 217.708L479.288 189.144L507.86 188.353L508.651 216.917ZM507.818 186.83L479.246 187.621L478.455 159.057L507.027 158.266L507.818 186.83ZM506.985 156.757L478.413 157.548L477.623 128.983L506.195 128.193L506.985 156.757ZM506.153 126.684L477.581 127.475L476.79 98.8962L505.362 98.1054L506.153 126.684ZM505.321 96.6109L476.749 97.4017L475.958 68.8372L504.53 68.0464L505.321 96.6109ZM550.386 637.151L521.814 637.942L521.023 609.377L549.595 608.586L550.386 637.151ZM549.553 607.078L520.981 607.868L520.191 579.304L548.763 578.513L549.553 607.078ZM548.721 577.005L520.149 577.795L519.358 549.231L547.93 548.44L548.721 577.005ZM547.888 546.917L519.316 547.708L518.525 519.144L547.098 518.353L547.888 546.917ZM547.056 516.844L518.484 517.635L517.693 489.056L546.265 488.266L547.056 516.844ZM546.224 486.771L517.651 487.562L516.861 458.997L545.433 458.207L546.224 486.771ZM545.391 456.698L516.819 457.489L516.028 428.924L544.601 428.133L545.391 456.698ZM544.558 426.611L515.986 427.402L515.196 398.837L543.768 398.046L544.558 426.611ZM543.726 396.538L515.154 397.328L514.363 368.764L542.936 367.973L543.726 396.538ZM542.894 366.465L514.322 367.255L513.531 338.691L542.103 337.9L542.894 366.465ZM542.061 336.391L513.489 337.182L512.699 308.618L541.271 307.827L542.061 336.391ZM541.229 306.304L512.657 307.095L511.866 278.531L540.438 277.74L541.229 306.304ZM540.396 276.231L511.824 277.022L511.034 248.457L539.606 247.667L540.396 276.231ZM539.564 246.158L510.992 246.949L510.201 218.384L538.773 217.594L539.564 246.158ZM538.732 216.085L510.159 216.876L509.369 188.311L537.941 187.52L538.732 216.085ZM537.899 185.998L509.327 186.789L508.536 158.224L537.108 157.433L537.899 185.998ZM537.067 155.925L508.494 156.715L507.704 128.151L536.276 127.36L537.067 155.925ZM536.234 125.851L507.662 126.642L506.871 98.0637L535.443 97.2729L536.234 125.851ZM580.467 636.318L551.895 637.109L551.104 608.544L579.676 607.754L580.467 636.318ZM579.635 606.245L551.062 607.036L550.272 578.471L578.844 577.681L579.635 606.245ZM578.802 576.172L550.23 576.963L549.439 548.398L578.012 547.607L578.802 576.172ZM577.969 546.085L549.397 546.876L548.607 518.311L577.179 517.52L577.969 546.085ZM577.137 516.012L548.565 516.802L547.774 488.224L576.346 487.433L577.137 516.012ZM576.305 485.939L547.733 486.729L546.942 458.165L575.514 457.374L576.305 485.939ZM575.472 455.865L546.9 456.656L546.11 428.092L574.682 427.301L575.472 455.865ZM574.64 425.778L546.068 426.569L545.277 398.004L573.849 397.214L574.64 425.778ZM573.807 395.705L545.235 396.496L544.445 367.931L573.017 367.141L573.807 395.705ZM572.975 365.632L544.403 366.423L543.612 337.858L572.184 337.067L572.975 365.632ZM572.143 335.559L543.57 336.35L542.78 307.785L571.352 306.994L572.143 335.559ZM571.31 305.472L542.738 306.262L541.947 277.698L570.519 276.907L571.31 305.472ZM570.478 275.399L541.905 276.189L541.115 247.625L569.687 246.834L570.478 275.399ZM569.645 245.325L541.073 246.116L540.282 217.552L568.855 216.761L569.645 245.325ZM568.813 215.252L540.241 216.043L539.45 187.479L568.022 186.688L568.813 215.252ZM567.98 185.165L539.408 185.956L538.617 157.391L567.19 156.601L567.98 185.165ZM567.148 155.092L538.576 155.883L537.785 127.318L566.357 126.528L567.148 155.092ZM566.315 125.019L537.743 125.81L536.952 97.2311L565.524 96.4403L566.315 125.019ZM565.483 94.9458L536.911 95.7366L536.12 67.1721L564.692 66.3813L565.483 94.9458ZM610.562 635.485L581.99 636.276L581.199 607.712L609.772 606.921L610.562 635.485ZM609.73 605.412L581.158 606.203L580.367 577.638L608.939 576.848L609.73 605.412ZM608.897 575.339L580.325 576.13L579.535 547.565L608.107 546.774L608.897 575.339ZM608.065 545.252L579.493 546.043L578.702 517.478L607.274 516.687L608.065 545.252ZM607.232 515.179L578.66 515.969L577.869 487.391L606.441 486.6L607.232 515.179ZM606.4 485.106L577.828 485.896L577.037 457.332L605.609 456.541L606.4 485.106ZM605.568 455.032L576.996 455.823L576.205 427.259L604.777 426.468L605.568 455.032ZM604.735 424.945L576.163 425.736L575.372 397.172L603.944 396.381L604.735 424.945ZM603.903 394.872L575.33 395.663L574.54 367.098L603.112 366.308L603.903 394.872ZM603.07 364.799L574.498 365.59L573.707 337.025L602.28 336.235L603.07 364.799ZM602.238 334.726L573.666 335.517L572.875 306.952L601.447 306.161L602.238 334.726ZM601.405 304.639L572.833 305.43L572.042 276.865L600.615 276.074L601.405 304.639ZM600.573 274.566L572.001 275.356L571.21 246.792L599.782 246.001L600.573 274.566ZM599.741 244.492L571.168 245.283L570.378 216.719L598.95 215.928L599.741 244.492ZM598.908 214.419L570.336 215.21L569.545 186.646L598.118 185.855L598.908 214.419ZM598.075 184.332L569.503 185.123L568.713 156.558L597.285 155.768L598.075 184.332ZM597.243 154.259L568.671 155.05L567.88 126.485L596.452 125.695L597.243 154.259ZM596.411 124.186L567.839 124.977L567.048 96.3981L595.62 95.6073L596.411 124.186ZM640.643 634.653L612.071 635.443L611.281 606.879L639.853 606.088L640.643 634.653ZM639.811 604.58L611.239 605.37L610.448 576.806L639.02 576.015L639.811 604.58ZM638.979 574.506L610.406 575.297L609.616 546.733L638.188 545.942L638.979 574.506ZM638.146 544.419L609.574 545.21L608.783 516.646L637.355 515.855L638.146 544.419ZM637.314 514.346L608.741 515.137L607.95 486.558L636.523 485.767L637.314 514.346ZM636.481 484.273L607.909 485.064L607.118 456.499L635.691 455.709L636.481 484.273ZM635.649 454.2L607.077 454.991L606.286 426.426L634.858 425.635L635.649 454.2ZM634.816 424.113L606.244 424.904L605.453 396.339L634.026 395.548L634.816 424.113ZM633.984 394.04L605.412 394.83L604.621 366.266L633.193 365.475L633.984 394.04ZM633.151 363.966L604.579 364.757L603.789 336.193L632.361 335.402L633.151 363.966ZM632.319 333.893L603.747 334.684L602.956 306.12L631.528 305.329L632.319 333.893ZM631.486 303.806L602.914 304.597L602.124 276.032L630.696 275.242L631.486 303.806ZM630.654 273.733L602.082 274.524L601.291 245.959L629.863 245.169L630.654 273.733ZM629.822 243.66L601.249 244.451L600.459 215.886L629.031 215.095L629.822 243.66ZM628.989 213.587L600.417 214.378L599.627 185.813L628.199 185.022L628.989 213.587ZM628.157 183.5L599.584 184.29L598.794 155.726L627.366 154.935L628.157 183.5ZM627.324 153.426L598.752 154.217L597.961 125.653L626.534 124.862L627.324 153.426ZM626.492 123.353L597.92 124.144L597.129 95.5656L625.701 94.7748L626.492 123.353ZM670.724 633.82L642.152 634.611L641.362 606.046L669.934 605.256L670.724 633.82ZM669.892 603.747L641.32 604.538L640.529 575.973L669.102 575.182L669.892 603.747ZM669.06 573.674L640.488 574.465L639.697 545.9L668.269 545.109L669.06 573.674ZM668.227 543.587L639.655 544.377L638.864 515.813L667.436 515.022L668.227 543.587ZM667.395 513.514L638.823 514.304L638.032 485.726L666.604 484.935L667.395 513.514ZM666.562 483.44L637.99 484.231L637.2 455.667L665.772 454.876L666.562 483.44ZM665.73 453.367L637.158 454.158L636.367 425.594L664.939 424.803L665.73 453.367ZM664.897 423.28L636.325 424.071L635.535 395.506L664.107 394.716L664.897 423.28ZM664.065 393.207L635.493 393.998L634.702 365.433L663.274 364.642L664.065 393.207ZM663.233 363.134L634.66 363.925L633.87 335.36L662.442 334.569L663.233 363.134ZM662.4 333.061L633.828 333.852L633.038 305.287L661.61 304.496L662.4 333.061ZM661.568 302.974L632.995 303.764L632.205 275.2L660.777 274.409L661.568 302.974ZM660.735 272.9L632.163 273.691L631.372 245.127L659.945 244.336L660.735 272.9ZM659.903 242.827L631.331 243.618L630.54 215.054L659.112 214.263L659.903 242.827ZM659.07 212.754L630.498 213.545L629.708 184.981L658.28 184.19L659.07 212.754ZM658.238 182.667L629.666 183.458L628.875 154.893L657.447 154.103L658.238 182.667ZM657.405 152.594L628.833 153.385L628.043 124.82L656.615 124.029L657.405 152.594ZM656.573 122.521L628.001 123.312L627.21 94.733L655.782 93.9422L656.573 122.521ZM655.741 92.4477L627.169 93.2385L626.378 64.674L654.95 63.8832L655.741 92.4477ZM701.638 663.061L673.066 663.851L672.275 635.287L700.847 634.496L701.638 663.061ZM700.806 632.988L672.233 633.778L671.443 605.214L700.015 604.423L700.806 632.988ZM699.973 602.914L671.401 603.705L670.611 575.141L699.183 574.35L699.973 602.914ZM699.141 572.841L670.569 573.632L669.778 545.068L698.35 544.277L699.141 572.841ZM698.308 542.754L669.736 543.545L668.945 514.98L697.518 514.19L698.308 542.754ZM697.476 512.681L668.904 513.472L668.113 484.893L696.685 484.102L697.476 512.681ZM696.644 482.608L668.071 483.399L667.281 454.834L695.853 454.043L696.644 482.608ZM695.811 452.535L667.239 453.326L666.448 424.761L695.021 423.97L695.811 452.535ZM694.978 422.448L666.406 423.238L665.616 394.674L694.188 393.883L694.978 422.448ZM694.146 392.374L665.574 393.165L664.783 364.601L693.356 363.81L694.146 392.374ZM693.314 362.301L664.742 363.092L663.951 334.528L692.523 333.737L693.314 362.301ZM692.481 332.228L663.909 333.019L663.119 304.455L691.691 303.664L692.481 332.228ZM691.649 302.141L663.077 302.932L662.286 274.367L690.858 273.576L691.649 302.141ZM690.816 272.068L662.244 272.859L661.454 244.294L690.026 243.503L690.816 272.068ZM689.984 241.995L661.412 242.786L660.621 214.221L689.193 213.43L689.984 241.995ZM689.152 211.922L660.579 212.712L659.789 184.148L688.361 183.357L689.152 211.922ZM688.319 181.834L659.747 182.625L658.956 154.061L687.528 153.27L688.319 181.834ZM687.487 151.761L658.914 152.552L658.124 123.988L686.696 123.197L687.487 151.761ZM686.654 121.688L658.082 122.479L657.291 93.9004L685.863 93.1096L686.654 121.688ZM730.901 632.155L702.329 632.945L701.538 604.381L730.11 603.59L730.901 632.155ZM730.069 602.081L701.496 602.872L700.706 574.308L729.278 573.517L730.069 602.081ZM729.236 572.008L700.664 572.799L699.873 544.235L728.446 543.444L729.236 572.008ZM728.404 541.921L699.831 542.712L699.041 514.147L727.613 513.357L728.404 541.921ZM727.571 511.848L698.999 512.639L698.208 484.06L726.78 483.269L727.571 511.848ZM726.739 481.775L698.167 482.566L697.376 454.001L725.948 453.21L726.739 481.775ZM725.906 451.702L697.334 452.493L696.544 423.928L725.116 423.137L725.906 451.702ZM725.074 421.615L696.502 422.405L695.711 393.841L724.283 393.05L725.074 421.615ZM724.241 391.541L695.669 392.332L694.879 363.768L723.451 362.977L724.241 391.541ZM723.409 361.468L694.837 362.259L694.046 333.695L722.618 332.904L723.409 361.468ZM722.577 331.395L694.005 332.186L693.214 303.622L721.786 302.831L722.577 331.395ZM721.744 301.308L693.172 302.099L692.381 273.534L720.953 272.744L721.744 301.308ZM720.912 271.235L692.339 272.026L691.549 243.461L720.121 242.67L720.912 271.235ZM720.079 241.162L691.507 241.953L690.717 213.388L719.289 212.597L720.079 241.162ZM719.247 211.089L690.675 211.88L689.884 183.315L718.456 182.524L719.247 211.089ZM718.414 181.002L689.842 181.792L689.051 153.228L717.624 152.437L718.414 181.002ZM717.582 150.928L689.01 151.719L688.219 123.155L716.791 122.364L717.582 150.928ZM716.75 120.855L688.177 121.646L687.386 93.0675L715.959 92.2767L716.75 120.855ZM715.917 90.7822L687.345 91.573L686.554 63.0085L715.127 62.2177L715.917 90.7822ZM715.084 60.695L686.512 61.4858L685.722 32.9213L714.294 32.1305L715.084 60.695ZM760.982 631.322L732.41 632.113L731.619 603.548L760.192 602.757L760.982 631.322ZM760.15 601.249L731.578 602.04L730.787 573.475L759.359 572.684L760.15 601.249ZM759.317 571.176L730.745 571.967L729.955 543.402L758.527 542.611L759.317 571.176ZM758.485 541.089L729.913 541.879L729.122 513.315L757.694 512.524L758.485 541.089ZM757.652 511.015L729.08 511.806L728.289 483.228L756.861 482.437L757.652 511.015ZM756.82 480.942L728.248 481.733L727.457 453.169L756.029 452.378L756.82 480.942ZM755.988 450.869L727.415 451.66L726.625 423.096L755.197 422.305L755.988 450.869ZM755.155 420.782L726.583 421.573L725.792 393.008L754.364 392.217L755.155 420.782ZM754.323 390.709L725.75 391.5L724.96 362.935L753.532 362.144L754.323 390.709ZM753.49 360.636L724.918 361.427L724.127 332.862L752.7 332.071L753.49 360.636ZM752.658 330.563L724.086 331.353L723.295 302.789L751.867 301.998L752.658 330.563ZM751.825 300.475L723.253 301.266L722.462 272.702L751.035 271.911L751.825 300.475ZM750.993 270.402L722.421 271.193L721.63 242.629L750.202 241.838L750.993 270.402ZM750.16 240.329L721.588 241.12L720.798 212.556L749.37 211.765L750.16 240.329ZM749.328 210.256L720.756 211.047L719.965 182.482L748.538 181.692L749.328 210.256ZM748.495 180.169L719.923 180.96L719.133 152.395L747.705 151.604L748.495 180.169ZM747.663 150.096L719.091 150.887L718.3 122.322L746.872 121.531L747.663 150.096ZM746.831 120.023L718.259 120.814L717.468 92.2349L746.04 91.4441L746.831 120.023ZM791.063 630.489L762.491 631.28L761.701 602.716L790.273 601.925L791.063 630.489ZM790.231 600.416L761.659 601.207L760.868 572.643L789.44 571.852L790.231 600.416ZM789.399 570.343L760.826 571.134L760.036 542.569L788.608 541.779L789.399 570.343ZM788.566 540.256L759.994 541.047L759.203 512.482L787.775 511.691L788.566 540.256ZM787.733 510.183L759.161 510.974L758.37 482.395L786.942 481.604L787.733 510.183ZM786.901 480.11L758.329 480.901L757.538 452.336L786.111 451.545L786.901 480.11ZM786.069 450.037L757.497 450.827L756.706 422.263L785.278 421.472L786.069 450.037ZM785.236 419.949L756.664 420.74L755.873 392.176L784.445 391.385L785.236 419.949ZM784.404 389.876L755.832 390.667L755.041 362.103L783.613 361.312L784.404 389.876ZM783.571 359.803L754.999 360.594L754.209 332.03L782.781 331.239L783.571 359.803ZM782.739 329.73L754.167 330.521L753.376 301.956L781.948 301.166L782.739 329.73ZM781.906 299.643L753.334 300.434L752.544 271.869L781.116 271.078L781.906 299.643ZM781.074 269.57L752.502 270.361L751.711 241.796L780.283 241.005L781.074 269.57ZM780.242 239.497L751.669 240.287L750.879 211.723L779.451 210.932L780.242 239.497ZM779.409 209.424L750.837 210.214L750.047 181.65L778.619 180.859L779.409 209.424ZM778.576 179.336L750.004 180.127L749.214 151.563L777.786 150.772L778.576 179.336ZM777.744 149.263L749.172 150.054L748.381 121.49L776.954 120.699L777.744 149.263ZM776.912 119.19L748.34 119.981L747.549 91.4023L776.121 90.6115L776.912 119.19ZM776.079 89.117L747.507 89.9078L746.717 61.3433L775.289 60.5525L776.079 89.117ZM821.144 629.657L792.572 630.448L791.782 601.883L820.354 601.092L821.144 629.657ZM820.312 599.584L791.74 600.375L790.949 571.81L819.521 571.019L820.312 599.584ZM819.48 569.511L790.908 570.301L790.117 541.737L818.689 540.946L819.48 569.511ZM818.647 539.423L790.075 540.214L789.284 511.65L817.856 510.859L818.647 539.423ZM817.815 509.35L789.242 510.141L788.451 481.562L817.024 480.772L817.815 509.35ZM816.982 479.277L788.41 480.068L787.62 451.504L816.192 450.713L816.982 479.277ZM816.15 449.204L787.578 449.995L786.787 421.43L815.359 420.64L816.15 449.204ZM815.317 419.117L786.745 419.908L785.954 391.343L814.527 390.552L815.317 419.117ZM814.485 389.044L785.913 389.835L785.122 361.27L813.694 360.479L814.485 389.044ZM813.653 358.971L785.08 359.761L784.29 331.197L812.862 330.406L813.653 358.971ZM812.82 328.898L784.248 329.688L783.457 301.124L812.03 300.333L812.82 328.898ZM811.987 298.81L783.415 299.601L782.625 271.037L811.197 270.246L811.987 298.81ZM811.155 268.737L782.583 269.528L781.792 240.964L810.365 240.173L811.155 268.737ZM810.323 238.664L781.751 239.455L780.96 210.89L809.532 210.1L810.323 238.664ZM809.49 208.591L780.918 209.382L780.128 180.817L808.7 180.026L809.49 208.591ZM808.658 178.504L780.085 179.295L779.295 150.73L807.867 149.939L808.658 178.504ZM807.825 148.431L779.253 149.222L778.463 120.657L807.035 119.866L807.825 148.431ZM806.993 118.358L778.421 119.148L777.63 90.5698L806.202 89.779L806.993 118.358ZM851.24 628.824L822.668 629.615L821.877 601.05L850.449 600.259L851.24 628.824ZM850.407 598.751L821.835 599.542L821.045 570.977L849.617 570.186L850.407 598.751ZM849.575 568.678L821.003 569.468L820.212 540.904L848.784 540.113L849.575 568.678ZM848.742 538.59L820.17 539.381L819.38 510.817L847.952 510.026L848.742 538.59ZM847.91 508.517L819.338 509.308L818.547 480.73L847.119 479.939L847.91 508.517ZM847.078 478.444L818.505 479.235L817.715 450.671L846.287 449.88L847.078 478.444ZM846.245 448.371L817.673 449.162L816.882 420.597L845.455 419.807L846.245 448.371ZM845.413 418.284L816.84 419.075L816.05 390.51L844.622 389.719L845.413 418.284ZM844.58 388.211L816.008 389.002L815.217 360.437L843.79 359.646L844.58 388.211ZM843.748 358.138L815.176 358.929L814.385 330.364L842.957 329.573L843.748 358.138ZM842.916 328.065L814.343 328.855L813.553 300.291L842.125 299.5L842.916 328.065ZM842.083 297.977L813.511 298.768L812.72 270.204L841.292 269.413L842.083 297.977ZM841.25 267.904L812.678 268.695L811.888 240.131L840.46 239.34L841.25 267.904ZM840.418 237.831L811.846 238.622L811.055 210.057L839.627 209.267L840.418 237.831ZM839.586 207.758L811.014 208.549L810.223 179.984L838.795 179.194L839.586 207.758ZM838.753 177.671L810.181 178.462L809.39 149.897L837.962 149.106L838.753 177.671ZM837.921 147.598L809.348 148.389L808.558 119.824L837.13 119.033L837.921 147.598ZM837.088 117.525L808.516 118.315L807.725 89.7368L836.297 88.946L837.088 117.525ZM881.321 627.991L852.749 628.782L851.958 600.218L880.53 599.427L881.321 627.991ZM880.489 597.918L851.916 598.709L851.126 570.144L879.698 569.354L880.489 597.918ZM879.656 567.845L851.084 568.636L850.293 540.071L878.866 539.281L879.656 567.845ZM878.823 537.758L850.251 538.549L849.461 509.984L878.033 509.193L878.823 537.758ZM877.991 507.685L849.419 508.476L848.628 479.897L877.2 479.106L877.991 507.685ZM877.159 477.612L848.587 478.402L847.796 449.838L876.368 449.047L877.159 477.612ZM876.326 447.539L847.754 448.329L846.964 419.765L875.536 418.974L876.326 447.539ZM875.494 417.451L846.922 418.242L846.131 389.678L874.703 388.887L875.494 417.451ZM874.661 387.378L846.089 388.169L845.299 359.605L873.871 358.814L874.661 387.378ZM873.829 357.305L845.257 358.096L844.466 329.531L873.038 328.741L873.829 357.305ZM872.997 327.232L844.425 328.023L843.634 299.458L872.206 298.668L872.997 327.232ZM872.164 297.145L843.592 297.936L842.801 269.371L871.373 268.58L872.164 297.145ZM871.332 267.072L842.759 267.863L841.969 239.298L870.541 238.507L871.332 267.072ZM870.499 236.999L841.927 237.789L841.136 209.225L869.709 208.434L870.499 236.999ZM869.667 206.925L841.095 207.716L840.304 179.152L868.876 178.361L869.667 206.925ZM868.834 176.838L840.262 177.629L839.471 149.065L868.044 148.274L868.834 176.838ZM868.002 146.765L839.43 147.556L838.639 118.991L867.211 118.201L868.002 146.765ZM867.169 116.692L838.597 117.483L837.806 88.9042L866.378 88.1134L867.169 116.692ZM866.337 86.6189L837.765 87.4098L836.974 58.8452L865.546 58.0544L866.337 86.6189ZM911.402 627.159L882.83 627.95L882.039 599.385L910.611 598.594L911.402 627.159ZM910.57 597.086L881.998 597.876L881.207 569.312L909.779 568.521L910.57 597.086ZM909.737 567.013L881.165 567.803L880.375 539.239L908.947 538.448L909.737 567.013ZM908.905 536.925L880.332 537.716L879.542 509.152L908.114 508.361L908.905 536.925ZM908.072 506.852L879.5 507.643L878.709 479.064L907.281 478.274L908.072 506.852ZM907.24 476.779L878.668 477.57L877.877 449.005L906.449 448.215L907.24 476.779ZM906.408 446.706L877.835 447.497L877.045 418.932L905.617 418.141L906.408 446.706ZM905.575 416.619L877.003 417.41L876.212 388.845L904.784 388.054L905.575 416.619ZM904.743 386.546L876.17 387.336L875.38 358.772L903.952 357.981L904.743 386.546ZM903.91 356.473L875.338 357.263L874.547 328.699L903.12 327.908L903.91 356.473ZM903.078 326.399L874.506 327.19L873.715 298.626L902.287 297.835L903.078 326.399ZM902.245 296.312L873.673 297.103L872.882 268.539L901.454 267.748L902.245 296.312ZM901.413 266.239L872.841 267.03L872.05 238.465L900.622 237.675L901.413 266.239ZM900.58 236.166L872.008 236.957L871.218 208.392L899.79 207.602L900.58 236.166ZM899.748 206.093L871.176 206.884L870.385 178.319L898.957 177.528L899.748 206.093ZM898.915 176.006L870.343 176.797L869.553 148.232L898.125 147.441L898.915 176.006ZM898.083 145.933L869.511 146.723L868.72 118.159L897.292 117.368L898.083 145.933ZM897.251 115.859L868.678 116.65L867.887 88.0717L896.46 87.2809L897.251 115.859ZM941.483 626.326L912.911 627.117L912.12 598.552L940.693 597.762L941.483 626.326ZM940.651 596.253L912.079 597.044L911.288 568.479L939.86 567.689L940.651 596.253ZM939.819 566.18L911.246 566.971L910.456 538.406L939.028 537.615L939.819 566.18ZM938.986 536.093L910.414 536.884L909.623 508.319L938.195 507.528L938.986 536.093ZM938.153 506.02L909.581 506.81L908.79 478.232L937.362 477.441L938.153 506.02ZM937.321 475.947L908.749 476.737L907.958 448.173L936.531 447.382L937.321 475.947ZM936.489 445.873L907.917 446.664L907.126 418.1L935.698 417.309L936.489 445.873ZM935.656 415.786L907.084 416.577L906.293 388.012L934.865 387.222L935.656 415.786ZM934.824 385.713L906.252 386.504L905.461 357.939L934.033 357.149L934.824 385.713ZM933.991 355.64L905.419 356.431L904.629 327.866L933.201 327.075L933.991 355.64ZM933.159 325.567L904.587 326.358L903.796 297.793L932.368 297.002L933.159 325.567ZM932.326 295.48L903.754 296.27L902.963 267.706L931.536 266.915L932.326 295.48ZM931.494 265.407L902.922 266.197L902.131 237.633L930.703 236.842L931.494 265.407ZM930.662 235.333L902.089 236.124L901.299 207.56L929.871 206.769L930.662 235.333ZM929.829 205.26L901.257 206.051L900.466 177.487L929.039 176.696L929.829 205.26ZM928.997 175.173L900.424 175.964L899.634 147.399L928.206 146.609L928.997 175.173ZM928.164 145.1L899.592 145.891L898.801 117.326L927.374 116.536L928.164 145.1ZM927.332 115.027L898.76 115.818L897.969 87.2391L926.541 86.4483L927.332 115.027ZM926.499 84.9538L897.927 85.7446L897.137 57.1801L925.709 56.3893L926.499 84.9538ZM925.667 54.8666L897.095 55.6574L896.304 27.0929L924.876 26.3021L925.667 54.8666ZM971.578 625.493L943.006 626.284L942.216 597.72L970.788 596.929L971.578 625.493ZM970.746 595.42L942.174 596.211L941.383 567.646L969.956 566.856L970.746 595.42ZM969.914 565.347L941.342 566.138L940.551 537.573L969.123 536.783L969.914 565.347ZM969.081 535.26L940.509 536.051L939.718 507.486L968.29 506.695L969.081 535.26ZM968.249 505.187L939.677 505.978L938.886 477.399L967.458 476.608L968.249 505.187ZM967.416 475.114L938.844 475.904L938.054 447.34L966.626 446.549L967.416 475.114ZM966.584 445.04L938.012 445.831L937.221 417.267L965.793 416.476L966.584 445.04ZM965.751 414.953L937.179 415.744L936.389 387.18L964.961 386.389L965.751 414.953ZM964.919 384.88L936.347 385.671L935.556 357.106L964.128 356.316L964.919 384.88ZM964.087 354.807L935.514 355.598L934.724 327.033L963.296 326.243L964.087 354.807ZM963.254 324.734L934.682 325.525L933.892 296.96L962.464 296.169L963.254 324.734ZM962.422 294.647L933.849 295.438L933.059 266.873L961.631 266.082L962.422 294.647ZM961.589 264.574L933.017 265.364L932.226 236.8L960.799 236.009L961.589 264.574ZM960.757 234.501L932.185 235.291L931.394 206.727L959.966 205.936L960.757 234.501ZM959.924 204.427L931.352 205.218L930.562 176.654L959.134 175.863L959.924 204.427ZM959.092 174.34L930.52 175.131L929.729 146.566L958.301 145.776L959.092 174.34ZM958.259 144.267L929.687 145.058L928.897 116.493L957.469 115.703L958.259 144.267ZM957.427 114.194L928.855 114.985L928.064 86.4061L956.636 85.6153L957.427 114.194ZM1001.66 624.661L973.087 625.451L972.297 596.887L1000.87 596.096L1001.66 624.661ZM1000.83 594.588L972.255 595.378L971.465 566.814L1000.04 566.023L1000.83 594.588ZM999.995 564.514L971.423 565.305L970.632 536.741L999.204 535.95L999.995 564.514ZM999.162 534.427L970.59 535.218L969.799 506.654L998.372 505.863L999.162 534.427ZM998.33 504.354L969.758 505.145L968.967 476.566L997.539 475.775L998.33 504.354ZM997.498 474.281L968.925 475.072L968.135 446.507L996.707 445.717L997.498 474.281ZM996.665 444.208L968.093 444.999L967.302 416.434L995.875 415.643L996.665 444.208ZM995.832 414.121L967.26 414.912L966.47 386.347L995.042 385.556L995.832 414.121ZM995 384.048L966.428 384.838L965.637 356.274L994.21 355.483L995 384.048ZM994.168 353.974L965.596 354.765L964.805 326.201L993.377 325.41L994.168 353.974ZM993.335 323.901L964.763 324.692L963.973 296.128L992.545 295.337L993.335 323.901ZM992.503 293.814L963.931 294.605L963.14 266.04L991.712 265.25L992.503 293.814ZM991.67 263.741L963.098 264.532L962.308 235.967L990.88 235.177L991.67 263.741ZM990.838 233.668L962.266 234.459L961.475 205.894L990.047 205.103L990.838 233.668ZM990.006 203.595L961.433 204.386L960.643 175.821L989.215 175.03L990.006 203.595ZM989.173 173.508L960.601 174.298L959.81 145.734L988.382 144.943L989.173 173.508ZM988.341 143.435L959.768 144.225L958.978 115.661L987.55 114.87L988.341 143.435ZM987.508 113.361L958.936 114.152L958.145 85.5736L986.717 84.7828L987.508 113.361ZM986.676 83.2883L958.104 84.0791L957.313 55.5146L985.885 54.7238L986.676 83.2883ZM1031.74 623.828L1003.17 624.619L1002.38 596.054L1030.95 595.264L1031.74 623.828ZM1030.91 593.755L1002.34 594.546L1001.55 565.981L1030.12 565.19L1030.91 593.755ZM1030.08 563.682L1001.5 564.473L1000.71 535.908L1029.29 535.117L1030.08 563.682ZM1029.24 533.595L1000.67 534.385L999.881 505.821L1028.45 505.03L1029.24 533.595ZM1028.41 503.522L999.839 504.312L999.048 475.734L1027.62 474.943L1028.41 503.522ZM1027.58 473.448L999.007 474.239L998.216 445.675L1026.79 444.884L1027.58 473.448ZM1026.75 443.375L998.174 444.166L997.384 415.602L1025.96 414.811L1026.75 443.375ZM1025.91 413.288L997.341 414.079L996.551 385.514L1025.12 384.724L1025.91 413.288ZM1025.08 383.215L996.509 384.006L995.719 355.441L1024.29 354.65L1025.08 383.215ZM1024.25 353.142L995.677 353.933L994.886 325.368L1023.46 324.577L1024.25 353.142ZM1023.42 323.069L994.844 323.86L994.054 295.295L1022.63 294.504L1023.42 323.069ZM1022.58 292.982L994.012 293.772L993.221 265.208L1021.79 264.417L1022.58 292.982ZM1021.75 262.908L993.179 263.699L992.389 235.135L1020.96 234.344L1021.75 262.908ZM1020.92 232.835L992.347 233.626L991.556 205.062L1020.13 204.271L1020.92 232.835ZM1020.09 202.762L991.515 203.553L990.724 174.989L1019.3 174.198L1020.09 202.762ZM1019.25 172.675L990.682 173.466L989.891 144.901L1018.46 144.111L1019.25 172.675ZM1018.42 142.602L989.85 143.393L989.059 114.828L1017.63 114.037L1018.42 142.602ZM1017.59 112.529L989.017 113.32L988.226 84.741L1016.8 83.9502L1017.59 112.529ZM1016.76 82.4557L988.185 83.2465L987.394 54.682L1015.97 53.8912L1016.76 82.4557ZM1015.92 52.3685L987.352 53.1593L986.562 24.5948L1015.13 23.804L1015.92 52.3685Z" fill="#CCCCCC"/>
<path d="M904.369 657.796L905.364 658.545L905.921 657.753L904.369 657.796Z" fill="#CCCCCC"/>
<path d="M18.0872 682.327L18.129 683.836L26.3813 683.608C28.656 683.164 30.955 682.578 33.2517 681.907L18.0872 682.327Z" fill="#CCCCCC"/>
<path d="M873.193 658.659L874.273 659.405L875.224 658.603L873.193 658.659Z" fill="#CCCCCC"/>
<path d="M156.416 679.063C156.778 678.87 157.14 678.676 157.487 678.483L135.82 679.083C137.004 679.544 138.175 680.02 139.359 680.467C139.387 680.466 139.402 680.48 139.43 680.493L154.468 680.077C155.122 679.748 155.776 679.406 156.417 679.077L156.416 679.063Z" fill="#CCCCCC"/>
</svg>
