<svg width="29" height="29" viewBox="0 0 29 29" fill="none" xmlns="http://www.w3.org/2000/svg">
<path d="M13.9283 0.0114882C21.9313 -0.304286 28.6745 5.92835 28.9886 13.9314C29.3027 21.9345 23.0687 28.6763 15.0656 28.9887C7.06481 29.3011 0.325345 23.0693 0.0113648 15.0686C-0.302616 7.06796 5.92774 0.327167 13.9283 0.0114882ZM18.6244 23.9964C20.0675 23.9685 21.4389 23.3626 22.4312 22.3144C23.0944 21.6226 23.5634 20.768 23.791 19.837C23.9906 19.0193 23.9426 18.2844 23.9425 17.4505V15.2321L23.9472 11.9825C23.9473 11.4721 23.9539 10.9589 23.9459 10.4471C23.924 9.03954 23.2981 7.62583 22.2854 6.64933C21.411 5.80626 20.2342 5.25606 19.0222 5.14408C18.572 5.10247 17.9724 5.12029 17.5042 5.12039L15.0339 5.12123L11.9517 5.1215C11.4329 5.12132 10.8407 5.10743 10.3262 5.12287L10.3052 5.12356C8.75222 5.22877 7.44015 5.79224 6.40409 6.98068C5.80994 7.66011 5.39383 8.47648 5.19315 9.35646C5.01568 10.1503 5.05516 10.948 5.05463 11.7598L5.05412 14.2919L5.05261 17.1462C5.05222 17.7177 5.03643 18.4303 5.07534 18.9915C5.18963 20.4335 5.87306 21.7709 6.97481 22.7084C7.61934 23.2601 8.38527 23.6514 9.21001 23.8503C10.0491 24.0443 10.8193 23.9998 11.6737 23.9982L14.0567 23.9962L17.0073 23.9974C17.5068 23.9984 18.1324 24.0174 18.6244 23.9964Z" fill="white"/>
<path d="M10.3876 6.95101C11.0524 6.93623 11.7445 6.94407 12.4106 6.9437L15.9298 6.94359L17.7044 6.94426C18.2093 6.94456 18.7969 6.92286 19.2875 7.02254C19.9336 7.15672 20.531 7.46404 21.0158 7.9116C21.7163 8.5596 22.1374 9.48441 22.1559 10.434C22.1676 11.034 22.1615 11.6479 22.1611 12.249L22.1605 15.5679L22.1621 17.6975C22.1619 18.2489 22.1868 18.9038 22.0782 19.4349C21.946 20.0667 21.6428 20.65 21.2017 21.1211C20.5224 21.8503 19.6636 22.2292 18.6744 22.2675L18.6466 22.2688C18.0669 22.2942 17.3764 22.2759 16.7893 22.275L13.6126 22.2756L11.393 22.2762C10.917 22.2756 10.1821 22.2956 9.73344 22.2042C9.08049 22.0736 8.47683 21.7636 7.99005 21.3093C7.29189 20.6689 6.8807 19.7746 6.84906 18.8278C6.82715 18.2127 6.84215 17.5186 6.8424 16.8959L6.8438 13.4322L6.84523 11.4023C6.84579 10.8815 6.80998 10.2641 6.92411 9.76105C7.30246 8.0937 8.71031 7.00557 10.3876 6.95101ZM14.8232 19.5117C17.5325 19.334 19.5842 16.9926 19.4047 14.2834C19.2253 11.5742 16.8827 9.52394 14.1735 9.70503C11.4667 9.88595 9.41859 12.2261 9.5979 14.933C9.77722 17.6399 12.1161 19.6895 14.8232 19.5117ZM19.6776 10.6876C20.3165 10.6163 20.7763 10.0399 20.7037 9.40113C20.6312 8.76233 20.0541 8.30363 19.4154 8.37727C18.7784 8.45073 18.3211 9.02612 18.3934 9.66328C18.4657 10.3004 19.0402 10.7588 19.6776 10.6876Z" fill="white"/>
<path d="M14.3009 11.474C16.0307 11.365 17.5223 12.6772 17.6348 14.4069C17.7472 16.1366 16.4379 17.6308 14.7085 17.7466C12.9742 17.8628 11.4749 16.5491 11.3622 14.8145C11.2495 13.08 12.5661 11.5833 14.3009 11.474Z" fill="white"/>
</svg>
