<svg width="29" height="29" viewBox="0 0 29 29" fill="none" xmlns="http://www.w3.org/2000/svg">
<path d="M0 13.5377C0.0902407 13.1507 0.126836 12.6386 0.190936 12.2373C0.272476 11.7267 0.373409 11.242 0.50814 10.7419C1.47716 7.18216 3.7489 4.12236 6.86782 2.17608C10.138 0.145917 14.0756 -0.497137 17.8167 0.388013C21.5561 1.27579 24.7939 3.61583 26.8223 6.8966C27.7282 8.36171 28.367 9.97739 28.7092 11.6679C28.7613 11.9265 28.9674 13.5894 29 13.6491V15.4214C28.9289 15.6313 28.8796 16.3357 28.8468 16.5852C28.057 22.5964 23.3635 27.5576 17.4845 28.8126C17.0848 28.8978 16.6744 28.922 16.2751 29C16.2454 28.2518 16.2517 27.482 16.2571 26.7318C16.2787 23.7007 16.2287 20.6624 16.2618 17.6323C17.3144 17.589 18.6893 17.6055 19.7546 17.6215C19.7792 17.2417 19.8458 16.8081 19.9028 16.4283C20.0449 15.48 20.1246 14.5035 20.2689 13.5582C19.0168 13.6626 17.5379 13.544 16.2643 13.5588C16.2474 13.0033 16.2549 12.4365 16.259 11.8821C16.2705 11.2901 16.2176 10.6997 16.3515 10.1181C16.576 9.14321 17.489 8.95965 18.3421 8.96423C19.0291 8.9679 19.7309 8.94658 20.4162 8.97004C20.4017 8.71671 20.4053 8.45044 20.4095 8.19589C20.4252 7.24625 20.398 6.29118 20.4137 5.34215C19.8503 5.26595 19.2258 5.23255 18.6567 5.20445C16.9915 5.12225 15.3323 5.13096 13.9388 6.19249C12.9073 6.97821 12.3002 8.23302 12.1582 9.50733C12.0131 10.8087 12.1079 12.2411 12.0724 13.5653C11.0606 13.6013 10.0382 13.5683 9.02529 13.5818C8.88247 13.5838 8.75095 13.5807 8.6102 13.5531C8.57998 13.8306 8.59006 14.074 8.58207 14.3487C8.55101 15.4203 8.62954 16.5411 8.57944 17.6071C9.69755 17.6492 10.9525 17.6196 12.0825 17.6238C12.0338 20.8375 12.1204 24.0733 12.0827 27.2892C12.0765 27.8159 12.0689 28.3631 12.081 28.8881C11.3366 28.7936 10.6229 28.5968 9.91245 28.358C7.17472 27.4384 4.77189 25.7189 3.01093 23.4195C1.67456 21.6825 0.749078 19.6624 0.304667 17.5124C0.221124 17.0994 0.153706 16.6833 0.102568 16.2651C0.0858986 16.1362 0.0291813 15.6171 0 15.5111V13.5377Z" fill="white"/>
</svg>
