<svg width="11" height="11" viewBox="0 0 11 11" fill="none" xmlns="http://www.w3.org/2000/svg">
<g clip-path="url(#clip0_144_531)">
<path d="M0 5.13499C0.0342292 4.9882 0.0481102 4.79395 0.072424 4.64173C0.103353 4.44806 0.141638 4.26421 0.192743 4.07451C0.560302 2.72427 1.422 1.56365 2.60504 0.82541C3.84545 0.0553478 5.33902 -0.188569 6.75806 0.147177C8.17645 0.48392 9.40458 1.37152 10.174 2.61595C10.5176 3.17168 10.7599 3.78453 10.8897 4.42576C10.9095 4.52384 10.9876 5.1546 11 5.17724V5.8495C10.973 5.92911 10.9543 6.1963 10.9419 6.29094C10.6423 8.57105 8.86202 10.4529 6.63205 10.9289C6.48044 10.9612 6.32477 10.9704 6.17331 11C6.16205 10.7162 6.16444 10.4242 6.16649 10.1396C6.17468 8.98992 6.15571 7.83746 6.16827 6.68811C6.56753 6.67169 7.08904 6.67795 7.49312 6.68402C7.50246 6.53996 7.52772 6.37549 7.54934 6.23142C7.60324 5.87172 7.63347 5.50133 7.6882 5.14277C7.21327 5.18237 6.65231 5.13738 6.16922 5.14299C6.16281 4.93229 6.16565 4.71729 6.16721 4.507C6.17157 4.28245 6.1515 4.05851 6.20229 3.8379C6.28745 3.46811 6.63376 3.39849 6.95735 3.40022C7.21793 3.40162 7.48413 3.39353 7.74408 3.40243C7.73858 3.30634 7.73994 3.20534 7.74153 3.10879C7.74749 2.74858 7.73717 2.38631 7.74313 2.02633C7.52942 1.99743 7.29254 1.98476 7.07668 1.9741C6.44505 1.94292 5.8157 1.94623 5.28713 2.34888C4.89587 2.64691 4.66559 3.12287 4.61173 3.60623C4.55669 4.09985 4.59265 4.64318 4.57919 5.14546C4.1954 5.15911 3.80759 5.1466 3.42339 5.15172C3.36921 5.15248 3.31933 5.1513 3.26594 5.14083C3.25448 5.24609 3.2583 5.33841 3.25527 5.44261C3.24349 5.84908 3.27327 6.27421 3.25427 6.67855C3.67838 6.69452 4.1544 6.6833 4.58302 6.68489C4.56454 7.90388 4.59739 9.13125 4.58309 10.3511C4.58074 10.5509 4.57786 10.7584 4.58245 10.9576C4.30009 10.9217 4.02938 10.8471 3.75989 10.7565C2.72145 10.4077 1.81003 9.75544 1.14208 8.88326C0.635178 8.2244 0.284133 7.45815 0.115563 6.64263C0.0838746 6.48598 0.0583023 6.32815 0.0389051 6.16952C0.0325822 6.12063 0.0110688 5.92373 0 5.88352V5.13499Z" fill="white"/>
</g>
<defs>
<clipPath id="clip0_144_531">
<rect width="11" height="11" fill="white"/>
</clipPath>
</defs>
</svg>
