<svg width="29" height="29" viewBox="0 0 29 29" fill="none" xmlns="http://www.w3.org/2000/svg">
<g clip-path="url(#clip0_30_39)">
<path d="M0 13.3683C0.166768 12.9343 0.16378 11.846 0.347178 11.3409C0.394431 11.1218 0.431386 10.88 0.505059 10.6679C0.821201 9.75789 1.08916 8.81933 1.5447 7.96499C1.96786 7.17137 2.40245 6.4727 2.95108 5.76084C4.06156 4.32002 5.43148 3.01773 7.03986 2.14352C7.20564 2.05294 7.32808 1.9271 7.51891 1.82139C8.07244 1.51476 8.62462 1.32559 9.20302 1.08712C12.1417 -0.124465 15.9177 -0.204532 18.9251 0.825557C22.6611 2.067 25.7309 4.76857 27.4303 8.31049C27.798 9.06353 28.0557 9.82936 28.2768 10.6354C28.3791 10.9794 28.4912 11.3124 28.5527 11.6673C28.8836 13.5809 28.8805 15.5209 28.5158 17.4299C28.4558 17.7438 28.3422 18.0299 28.2614 18.3338C28.0041 19.3034 27.6691 20.2463 27.1592 21.1147C26.9307 21.5901 26.667 22.0402 26.3852 22.486C26.3217 22.586 26.1942 22.6765 26.1292 22.7816C25.6474 23.559 25 24.1931 24.3752 24.8537C24.222 25.0158 24.0201 25.149 23.854 25.2968C22.8781 26.1677 21.7565 26.9212 20.5562 27.4479C20.3568 27.5355 20.1703 27.6639 19.9574 27.7491C16.6467 29.1051 12.9511 29.1987 9.57567 28.0117C6.31286 26.8445 3.57998 24.546 1.87588 21.5364C1.73233 21.283 1.5774 21.0407 1.43929 20.7833C1.13841 20.2225 0.985934 19.5879 0.760929 19.013C0.457405 18.2375 0.312242 17.5548 0.182463 16.7379C0.150729 16.5382 0.0619014 15.6909 0 15.5643V13.3683ZM4.8339 8.18838C4.79181 9.21344 4.81464 10.3137 4.81497 11.3459L4.81431 17.6797C4.8122 18.5172 4.83696 19.4102 4.81488 20.237C5.16613 20.2674 5.6198 20.2584 5.97655 20.2589L7.79931 20.2579L9.82531 20.2587C11.1719 20.2627 12.6534 20.3097 13.7453 19.3935C13.9004 19.2633 14.3452 18.842 14.4342 18.6774C14.5481 18.4588 14.7606 18.0111 14.8228 17.769C15.0139 17.0248 15.0186 16.0902 14.7784 15.358C14.6123 14.8517 14.4687 14.493 14.0472 14.1522C13.9104 14.0417 13.8606 13.9715 13.6891 13.8829C13.3853 13.7262 13.1642 13.7499 12.8616 13.7136C12.9271 13.6937 13.1602 13.6277 13.206 13.6054C13.671 13.38 14.0562 13.0249 14.302 12.5761C14.6139 12.0067 14.578 10.9007 14.3961 10.304C14.2116 9.6989 13.6282 8.92959 13.0553 8.63782C12.0624 8.13218 11.1114 8.23747 10.0514 8.23149L7.48624 8.23109C6.77741 8.23031 6.12462 8.15919 5.39385 8.1796C5.15831 8.19638 5.06566 8.20689 4.8339 8.18838ZM17.4505 8.90388C17.4257 9.38091 17.4412 9.94862 17.4425 10.4337C18.8574 10.4314 20.2714 10.4214 21.6867 10.435C21.9176 10.4372 22.1591 10.4411 22.3893 10.4331L22.4232 10.4041C22.4333 9.96875 22.4341 9.3672 22.4146 8.93507C21.2216 8.91669 20.0163 8.94435 18.8231 8.93158C18.5335 8.9285 17.6626 8.95958 17.4505 8.90388ZM19.5887 11.2898C16.2646 11.3691 14.7197 14.8586 15.6707 17.7757C15.7364 17.977 15.8789 18.1738 15.9672 18.3608C16.7462 20.0106 18.6268 20.5879 20.3371 20.4804C22.4357 20.3872 24.0766 19.5766 24.1829 17.2773C24.1278 17.2738 24.0256 17.2642 23.9744 17.2662C23.6587 17.2679 22.2177 17.2483 22.0499 17.3054C21.9708 17.4578 21.9388 17.6127 21.8738 17.7522C21.7402 18.0393 21.4585 18.3377 21.1449 18.4279C20.5111 18.6102 19.6066 18.6548 19.0074 18.3427C18.7005 18.1828 18.2041 17.6842 18.1207 17.3334C18.0411 16.9985 18.0305 16.8369 18.0076 16.4865C18.6583 16.4968 19.326 16.4808 19.9789 16.4822L24.2545 16.493C24.3156 15.4827 24.2341 14.3746 23.8072 13.4094C23.666 13.0903 23.3553 12.7047 23.1387 12.4284C22.1611 11.3731 20.9387 11.2517 19.5887 11.2898Z" fill="white"/>
<path d="M7.78083 14.9047C7.80882 14.9033 7.83683 14.9025 7.86486 14.902L9.96459 14.8956C10.7807 14.8953 11.8827 14.7446 12.234 15.7011C12.341 15.9924 12.3542 16.2223 12.358 16.5257C12.3647 17.0647 12.2652 17.4011 11.8856 17.7863C11.7419 17.9036 11.3642 18.0285 11.1801 18.0365C10.003 18.088 8.79831 18.0203 7.62231 18.0573C7.65206 17.7777 7.63161 17.4014 7.63657 17.1092C7.64868 16.396 7.61599 15.6564 7.6358 14.9465C7.68412 14.9 7.7013 14.9127 7.78083 14.9047Z" fill="white"/>
<path d="M7.69967 10.3698C8.80696 10.4227 9.94908 10.3334 11.0571 10.3992C12.0266 10.4566 11.9649 11.4249 11.9069 12.134C11.8818 12.4405 11.8029 12.6054 11.5631 12.7967C11.5469 12.8166 11.3335 12.9637 11.2707 13.018C11.0855 13.0442 10.9299 13.0458 10.7453 13.0516C9.7225 13.0839 8.65508 13.0084 7.63754 13.0557L7.6313 11.1303C7.63035 10.9221 7.62319 10.6452 7.63439 10.4343C7.63657 10.3935 7.6684 10.3864 7.69967 10.3698Z" fill="white"/>
<path d="M19.7037 13.0857C20.5643 13.0362 21.2539 13.1016 21.684 13.9674C21.8309 14.2633 21.8377 14.5248 21.8967 14.8374C21.3404 14.8541 20.7593 14.8469 20.2011 14.8475L18.8369 14.8424C18.5796 14.8422 18.2469 14.8349 17.9954 14.862C18.0996 14.4227 18.1451 14.1919 18.4361 13.8282C18.8014 13.3715 19.1041 13.1502 19.7037 13.0857Z" fill="white"/>
</g>
<defs>
<clipPath id="clip0_30_39">
<rect width="29" height="29" fill="white"/>
</clipPath>
</defs>
</svg>
