<svg width="20" height="14" viewBox="0 0 20 14" fill="none" xmlns="http://www.w3.org/2000/svg">
<path d="M2.2219 3.482C1.13947 5.13139 -0.29242 9.12084 2.63937 11.8834C6.30413 15.3367 8.9711 6.78361 8.97874 4.63257C8.98642 2.48152 7.77325 -0.288581 5.48793 2.20654C3.65965 4.20263 6.30979 10.0531 7.86335 12.7288" stroke="white" stroke-width="0.5" stroke-linecap="round"/>
<path d="M10.589 1.93634C10.2977 4.72351 10.0444 10.4253 9.97431 11.14C9.8883 12.0164 10.0361 12.1433 11.0593 12.1681L18.5535 11.8961" stroke="white" stroke-width="0.5" stroke-linecap="round"/>
<path d="M14.1445 6.6613C14.3776 6.6613 14.5667 6.47354 14.5667 6.24194C14.5667 6.01034 14.3776 5.82259 14.1445 5.82259C13.9113 5.82259 13.7222 6.01034 13.7222 6.24194C13.7222 6.47354 13.9113 6.6613 14.1445 6.6613Z" stroke="white" stroke-width="0.5"/>
</svg>
