<svg width="1060" height="685" viewBox="0 0 1060 685" fill="none" xmlns="http://www.w3.org/2000/svg">
<path opacity="0.62" d="M1059.39 621.392L1039.9 4.73213C1039.83 2.03795 1037.57 -0.073392 1034.87 0.00119895L950.144 2.34629L950.658 20.9093C959.074 22.455 965.544 29.7012 965.79 38.5878C966.073 48.8003 958.02 57.3095 947.818 57.5918C937.617 57.8742 929.105 49.8234 928.822 39.6109C928.576 30.7244 934.65 23.131 942.954 21.1225L942.44 2.55952L879.256 4.30828L879.77 22.8713C888.186 24.417 894.656 31.6632 894.902 40.5498C895.185 50.7622 887.132 59.2715 876.93 59.5538C866.729 59.8362 858.217 51.7854 857.935 41.5729C857.689 32.6864 863.762 25.093 872.066 23.0845L871.552 4.52151L808.369 6.27027L808.882 24.8333C817.299 26.379 823.769 33.6252 824.015 42.5117C824.297 52.7242 816.244 61.2335 806.028 61.5162C795.813 61.799 787.315 53.7478 787.033 43.5353C786.787 34.6488 792.86 27.0554 801.164 25.0469L800.65 6.48389L737.467 8.23265L737.98 26.7957C746.397 28.3414 752.867 35.5876 753.113 44.4741C753.395 54.6866 745.342 63.1959 735.141 63.4782C724.939 63.7606 716.414 55.7102 716.131 45.4977C715.885 36.6111 721.958 29.0178 730.262 27.0093L729.748 8.44627L666.565 10.195L667.078 28.7581C675.495 30.3038 681.965 37.55 682.211 46.4365C682.494 56.649 674.44 65.1582 664.239 65.4406C654.037 65.7229 645.512 57.6726 645.229 47.4601C644.983 38.5735 651.057 30.9802 659.36 28.9717L658.847 10.4086L595.663 12.1574L596.177 30.7204C604.593 32.2662 611.063 39.5123 611.309 48.3989C611.592 58.6114 603.538 67.1206 593.337 67.403C583.136 67.6853 574.61 59.6349 574.327 49.4225C574.081 40.5359 580.155 32.9426 588.458 30.9341L587.945 12.371L524.761 14.1198L525.275 32.6828C533.691 34.2285 540.161 41.4747 540.407 50.3613C540.69 60.5738 532.636 69.083 522.435 69.3654C512.234 69.6477 503.722 61.5969 503.439 51.3844C503.193 42.4979 509.267 34.9045 517.571 32.896L517.057 14.333L453.873 16.0818L454.387 34.6448C462.803 36.1905 469.273 43.4367 469.519 52.3233C469.802 62.5357 461.749 71.045 451.547 71.3273C441.346 71.6097 432.834 63.5589 432.552 53.3464C432.306 44.4599 438.379 36.8665 446.683 34.858L446.169 16.295L382.985 18.0438L383.499 36.6068C391.915 38.1525 398.386 45.3987 398.632 54.2853C398.914 64.4977 390.861 73.007 380.659 73.2893C370.458 73.5717 361.932 65.5213 361.65 55.3088C361.404 46.4223 367.477 38.8289 375.781 36.8204L375.267 18.2574L312.083 20.0062L312.597 38.5692C321.014 40.1149 327.484 47.3611 327.73 56.2476C328.012 66.4601 319.959 74.9694 309.758 75.2517C299.556 75.5341 291.045 67.4833 290.762 57.2708C290.516 48.3842 296.589 40.7909 304.893 38.7824L304.38 20.2194L241.196 21.9681L241.709 40.5312C250.126 42.0769 256.596 49.3231 256.842 58.2096C257.125 68.4221 249.071 76.9314 238.87 77.2137C228.668 77.496 220.157 69.4453 219.874 59.2328C219.628 50.3462 225.702 42.7529 234.006 40.7444L233.492 22.1814L170.308 23.9301L170.822 42.4932C179.238 44.0389 185.708 51.2851 185.954 60.1716C186.237 70.3841 178.183 78.8933 167.968 79.1761C157.752 79.4588 149.255 71.4077 148.972 61.1952C148.726 52.3086 154.8 44.7153 163.104 42.7068L162.59 24.1437L99.406 25.8925L99.9198 44.4555C108.336 46.0013 114.806 53.2474 115.052 62.134C115.335 72.3465 107.282 80.8557 97.0801 81.1381C86.8787 81.4204 78.3671 73.3696 78.0845 63.1572C77.8385 54.2706 83.912 46.6773 92.2158 44.6688L91.7021 26.1057L5.95664 28.479C2.57028 28.5727 -0.0912836 31.3849 0.00241416 34.7703L17.9815 684.363C40.2044 683.748 64.4448 664.698 85.6805 671.267C92.0469 673.236 100.369 676.987 104.129 671.504C104.807 670.512 105.211 669.301 106.122 668.513C108.012 666.908 110.893 667.943 113.125 669.025C121.655 673.137 130.358 676.877 139.219 680.217C141.731 681.164 144.341 682.094 147.022 682.02C150.309 681.929 153.358 680.362 156.281 678.813C165.842 673.763 174.907 667.64 184.95 663.663C196.068 659.262 232.21 672.265 232.21 672.265C242.873 664.192 275.696 669.509 275.696 669.509L358.47 681.207L413.913 661.011L437.352 665.034L454.152 653.686L476.21 663.959C476.21 663.959 494.691 657.222 507.165 658.43C519.639 659.637 541.754 671.462 541.754 671.462L563.383 666.205L580.699 673.503C580.699 673.503 606.869 663.448 617.704 661.596C628.54 659.743 689.6 673.595 689.6 673.595C689.6 673.595 758.811 645.239 775.869 643.214C792.927 641.189 814.856 646.794 814.856 646.794L840.94 633.635L856.876 647.184L874.321 659.137L889.526 646.28L905.419 658.277L909.903 651.927L961.451 659.831L985.423 626.517L1009.08 638.299L1019.83 633.343C1026.26 640.943 1038.91 648.371 1038.91 648.371L1059.4 621.363L1059.39 621.392Z" fill="#606060"/>
</svg>
