<svg width="266" height="92" viewBox="0 0 266 92" fill="none" xmlns="http://www.w3.org/2000/svg">
<path d="M134.581 1.25683C171.218 2.58158 204.162 8.85194 227.8 17.89C239.623 22.4109 249.064 27.6044 255.474 33.1744C261.893 38.7517 265.152 44.5929 264.941 50.435C264.729 56.2772 261.057 61.8686 254.252 66.9678C247.456 72.0602 237.665 76.5574 225.546 80.2126C201.318 87.5199 168.007 91.3946 131.37 90.0699C94.7319 88.7451 61.7881 82.4748 38.1509 73.4367C26.3277 68.9158 16.8866 63.7232 10.4761 58.1533C4.0572 52.5759 0.798466 46.7339 1.00971 40.8917C1.22103 35.0496 4.89322 29.459 11.698 24.3599C18.4941 19.2674 28.2854 14.7693 40.4044 11.1141C64.6326 3.80676 97.9432 -0.0679043 134.581 1.25683Z" stroke="white" stroke-width="2"/>
</svg>
