<svg width="11" height="11" viewBox="0 0 11 11" fill="none" xmlns="http://www.w3.org/2000/svg">
<g clip-path="url(#clip0_144_539)">
<mask id="mask0_144_539" style="mask-type:luminance" maskUnits="userSpaceOnUse" x="0" y="0" width="11" height="11">
<path d="M11 0H0V11H11V0Z" fill="white"/>
</mask>
<g mask="url(#mask0_144_539)">
<path d="M0 5.07075C0.0632568 4.90613 0.0621235 4.49333 0.131688 4.30174C0.149612 4.21863 0.163629 4.12691 0.191574 4.04646C0.31149 3.70128 0.41313 3.34528 0.585921 3.02122C0.74643 2.72019 0.911274 2.45518 1.11938 2.18516C1.54059 1.63864 2.06022 1.14467 2.67029 0.813074C2.73317 0.778716 2.77962 0.730984 2.852 0.690887C3.06196 0.574579 3.27141 0.502825 3.4908 0.412371C4.60547 -0.047196 6.03775 -0.0775663 7.17849 0.313157C8.59559 0.784049 9.76 1.80878 10.4046 3.15227C10.5441 3.43791 10.6418 3.72839 10.7257 4.03413C10.7645 4.16461 10.807 4.29093 10.8303 4.42554C10.9558 5.15139 10.9547 5.88725 10.8163 6.61136C10.7936 6.73042 10.7505 6.83894 10.7198 6.95421C10.6222 7.32199 10.4952 7.67965 10.3018 8.00904C10.2151 8.18936 10.1151 8.36009 10.0082 8.52919C9.98409 8.56712 9.93573 8.60145 9.91108 8.64131C9.72832 8.93619 9.48276 9.17671 9.24577 9.42728C9.18766 9.48877 9.11107 9.53929 9.04807 9.59535C8.6779 9.92569 8.25247 10.2115 7.79718 10.4113C7.72154 10.4445 7.6508 10.4932 7.57005 10.5255C6.31427 11.0399 4.91249 11.0754 3.63215 10.6251C2.39453 10.1824 1.35792 9.31057 0.711541 8.16899C0.657091 8.07288 0.598324 7.98097 0.545938 7.88334C0.431811 7.67062 0.373975 7.42991 0.288628 7.21184C0.173498 6.91769 0.118437 6.65873 0.0692101 6.34887C0.0571731 6.27313 0.0234798 5.95174 0 5.90371V5.07075ZM1.83355 3.10595C1.81758 3.49477 1.82624 3.91211 1.82637 4.30363L1.82612 6.70611C1.82532 7.02378 1.83471 7.3625 1.82633 7.67612C1.95957 7.68765 2.13165 7.68424 2.26697 7.68442L2.95836 7.68405L3.72684 7.68435C4.23762 7.68587 4.79957 7.70369 5.21373 7.35617C5.27257 7.30678 5.44128 7.14698 5.47504 7.08455C5.51824 7.00163 5.59885 6.83181 5.62244 6.73998C5.69493 6.4577 5.69671 6.10319 5.6056 5.82546C5.5426 5.63342 5.48813 5.49736 5.32825 5.36809C5.27636 5.32618 5.25747 5.29955 5.19242 5.26594C5.07718 5.2065 4.99332 5.21549 4.87854 5.20173C4.90338 5.19418 4.9918 5.16914 5.00917 5.16068C5.18555 5.07519 5.33166 4.94049 5.4249 4.77026C5.5432 4.55428 5.52959 4.13476 5.46059 3.90843C5.39061 3.67891 5.16932 3.3871 4.95201 3.27643C4.57539 3.08463 4.21467 3.12457 3.8126 3.1223L2.83961 3.12215C2.57074 3.12186 2.32313 3.09488 2.04594 3.10262C1.9566 3.10899 1.92146 3.11297 1.83355 3.10595ZM6.61916 3.37735C6.60975 3.55829 6.61563 3.77363 6.61612 3.95763C7.15281 3.95675 7.68915 3.95296 8.22599 3.95812C8.31357 3.95895 8.40518 3.96043 8.49249 3.9574L8.50535 3.9464C8.50918 3.78126 8.50949 3.55309 8.50209 3.38918C8.04957 3.38221 7.59239 3.3927 7.1398 3.38786C7.02995 3.38669 6.69961 3.39848 6.61916 3.37735ZM7.4302 4.28235C6.16933 4.31243 5.58333 5.63604 5.94406 6.74252C5.96898 6.81888 6.02303 6.89353 6.05652 6.96446C6.35201 7.59024 7.06534 7.80922 7.71407 7.76844C8.51009 7.73309 9.1325 7.42562 9.17282 6.55347C9.15192 6.55215 9.11316 6.5485 9.09374 6.54926C8.97399 6.54991 8.4274 6.54247 8.36376 6.56413C8.33375 6.62194 8.32161 6.68069 8.29696 6.73361C8.24628 6.84251 8.13943 6.95569 8.02048 6.98991C7.78007 7.05906 7.43699 7.07597 7.2097 6.95759C7.09329 6.89694 6.905 6.70782 6.87337 6.57475C6.84318 6.44772 6.83916 6.38643 6.83047 6.25351C7.07729 6.25742 7.33055 6.25135 7.5782 6.25188L9.19998 6.25598C9.22316 5.87276 9.19224 5.45245 9.03032 5.08634C8.97676 4.9653 8.85891 4.81904 8.77675 4.71424C8.40593 4.31395 7.94227 4.2679 7.4302 4.28235Z" fill="white"/>
<path d="M2.95136 5.65353C2.96198 5.65299 2.9726 5.65269 2.98324 5.6525L3.77969 5.65007C4.08925 5.64996 4.50725 5.5928 4.6405 5.95561C4.68108 6.0661 4.68609 6.1533 4.68753 6.26839C4.69007 6.47284 4.65233 6.60044 4.50835 6.74655C4.45384 6.79104 4.31057 6.83842 4.24074 6.84145C3.79426 6.86098 3.3373 6.83531 2.89124 6.84934C2.90252 6.74328 2.89476 6.60055 2.89664 6.48972C2.90124 6.21919 2.88884 5.93865 2.89635 5.66938C2.91468 5.65174 2.9212 5.65656 2.95136 5.65353Z" fill="white"/>
<path d="M2.92055 3.93338C3.34056 3.95345 3.77378 3.91957 4.19406 3.94453C4.5618 3.9663 4.5384 4.33359 4.5164 4.60256C4.50688 4.71882 4.47695 4.78137 4.38599 4.85393C4.37985 4.86148 4.2989 4.91727 4.27508 4.93787C4.20483 4.94781 4.14581 4.94841 4.07579 4.95061C3.68783 4.96287 3.28295 4.93423 2.89699 4.95217L2.89462 4.22185C2.89426 4.14287 2.89154 4.03784 2.89579 3.95785C2.89662 3.94237 2.90869 3.93968 2.92055 3.93338Z" fill="white"/>
<path d="M7.47384 4.96355C7.80028 4.94478 8.06185 4.96958 8.22499 5.29799C8.28071 5.41023 8.28329 5.50942 8.30567 5.62799C8.09466 5.63433 7.87424 5.63159 7.66251 5.63182L7.14506 5.62989C7.04746 5.62981 6.92126 5.62704 6.82587 5.63732C6.86539 5.47069 6.88265 5.38315 6.99303 5.24519C7.13159 5.07196 7.24641 4.98802 7.47384 4.96355Z" fill="white"/>
</g>
</g>
<defs>
<clipPath id="clip0_144_539">
<rect width="11" height="11" fill="white"/>
</clipPath>
</defs>
</svg>
