<svg width="11" height="11" viewBox="0 0 11 11" fill="none" xmlns="http://www.w3.org/2000/svg">
<g clip-path="url(#clip0_144_519)">
<path d="M5.28315 0.00435759C8.31877 -0.115419 10.8765 2.24868 10.9957 5.28432C11.1148 8.31998 8.7502 10.8772 5.71454 10.9957C2.67976 11.1142 0.123407 8.75042 0.00431078 5.71568C-0.114785 2.68095 2.24845 0.124098 5.28315 0.00435759ZM7.06443 9.10208C7.61181 9.0915 8.132 8.86168 8.50839 8.46408C8.75994 8.20168 8.93784 7.87752 9.02417 7.52438C9.09988 7.21422 9.08168 6.93546 9.08164 6.61916V5.77769L9.08342 4.54509C9.08346 4.35149 9.08596 4.15682 9.08293 3.96269C9.07462 3.42879 8.83721 2.89256 8.45308 2.52216C8.12141 2.20237 7.67504 1.99368 7.21532 1.9512C7.04455 1.93542 6.81712 1.94218 6.63952 1.94222L5.70251 1.94254L4.5334 1.94264C4.33662 1.94257 4.11199 1.9373 3.91683 1.94316L3.90887 1.94342C3.31981 1.98333 2.82213 2.19706 2.42914 2.64784C2.20377 2.90556 2.04594 3.21522 1.96982 3.549C1.9025 3.85011 1.91747 4.15269 1.91727 4.46061L1.91708 5.42107L1.91651 6.50373C1.91636 6.72051 1.91037 6.9908 1.92513 7.20367C1.96848 7.75064 2.22771 8.25793 2.64562 8.61353C2.89009 8.8228 3.18062 8.97122 3.49345 9.04667C3.81173 9.12025 4.10387 9.10337 4.42796 9.10277L5.33185 9.10201L6.45104 9.10246C6.64051 9.10284 6.87781 9.11005 7.06443 9.10208Z" fill="white"/>
<path d="M3.9401 2.63659C4.19227 2.63098 4.45479 2.63395 4.70745 2.63381L6.04232 2.63377L6.71544 2.63402C6.90695 2.63414 7.12984 2.62591 7.31593 2.66372C7.561 2.71461 7.7876 2.83118 7.97149 3.00095C8.2372 3.24674 8.39692 3.59753 8.40394 3.95772C8.40838 4.18531 8.40606 4.41816 8.40591 4.64617L8.40569 5.90506L8.40629 6.71284C8.40622 6.92199 8.41566 7.1704 8.37447 7.37185C8.32432 7.6115 8.20932 7.83275 8.042 8.01145C7.78434 8.28804 7.45859 8.43176 7.08337 8.44629L7.07283 8.44678C6.85294 8.45642 6.59103 8.44947 6.36833 8.44913L5.16338 8.44936L4.32146 8.44959C4.14091 8.44936 3.86215 8.45695 3.69197 8.42228C3.4443 8.37274 3.21533 8.25515 3.03069 8.08283C2.76587 7.83992 2.6099 7.50071 2.5979 7.14157C2.58959 6.90826 2.59528 6.64498 2.59537 6.40878L2.5959 5.09497L2.59645 4.32501C2.59666 4.12746 2.58307 3.89327 2.62637 3.70246C2.76988 3.07002 3.30389 2.65728 3.9401 2.63659ZM5.62257 7.40098C6.65024 7.33358 7.42847 6.44546 7.36038 5.41784C7.29233 4.39021 6.40376 3.61252 5.37613 3.68121C4.34942 3.74984 3.57255 4.63748 3.64056 5.66424C3.70858 6.69099 4.59574 7.46843 5.62257 7.40098ZM7.4639 4.05391C7.70624 4.02687 7.88064 3.80823 7.85311 3.56594C7.82561 3.32364 7.60671 3.14965 7.36444 3.17758C7.12282 3.20544 6.94936 3.4237 6.97679 3.66538C7.00421 3.90704 7.22212 4.08092 7.4639 4.05391Z" fill="white"/>
<path d="M5.42448 4.35219C6.08061 4.31085 6.64639 4.80858 6.68907 5.46467C6.7317 6.12077 6.23507 6.68753 5.57909 6.73145C4.92125 6.77553 4.35255 6.27723 4.3098 5.61928C4.26705 4.96136 4.76646 4.39365 5.42448 4.35219Z" fill="white"/>
</g>
<defs>
<clipPath id="clip0_144_519">
<rect width="11" height="11" fill="white"/>
</clipPath>
</defs>
</svg>
