<svg width="325" height="183" viewBox="0 0 325 183" fill="none" xmlns="http://www.w3.org/2000/svg">
<path d="M103.008 71.3567C98.7982 67.0447 96.5071 63.7226 97.1038 57.3935C97.6855 51.2331 101.949 45.9177 107.593 43.5599C111.079 42.1037 113.768 42.4269 117.399 42.1271C117.763 41.3924 118.886 37.29 119.033 36.7765C123.377 21.5104 132.548 8.02474 150.198 9.80388C155.905 10.381 161.145 13.2208 164.75 17.6908C169.451 23.4989 171.295 32.9435 170.536 40.2412C173.421 40.1854 176.478 39.6765 179.356 39.4294C183.44 39.079 187.607 38.9523 191.672 38.4699C194.622 38.1196 197.285 37.1333 200.351 37.3004C202.592 37.4226 204.326 37.9422 206.301 38.9824C210.246 41.0613 212.178 44.0221 213.451 48.1708C217.961 47.0761 224.667 47.3639 229.15 48.81C229.869 49.0417 232.885 50.4041 233.244 50.3531C234.298 50.2036 236.656 48.8067 238.096 48.5208C241.33 47.8775 244.574 47.9432 247.852 48.0205C252.751 48.1354 256.145 49.6583 259.487 53.1808C264.374 46.9519 278.449 46.4765 284.765 50.6234C285.089 50.4298 285.419 50.2445 285.753 50.068C292.03 46.78 300.838 46.9372 307.409 48.9493C319.509 52.6539 324.219 63.5042 324.927 75.3381C324.951 75.3762 324.976 75.4144 325 75.4526V95.3476C324.73 97.1689 324.461 100.328 324.067 101.922C322.555 108.042 319.428 114.333 314.298 118.134C308.537 122.456 301.292 124.295 294.171 123.241C291.115 122.776 287.664 121.741 285.038 120.091C279.176 123.411 272.251 123.84 265.795 122.162C261.799 123.485 255.074 123.012 250.72 123.054C245.275 123.107 237.798 123.623 233.248 120.243C221.289 125.863 209.659 124.424 200.318 114.784C197.169 119.308 193.999 122.136 188.327 122.788C178.789 123.886 171.696 121.645 167.493 112.796C157.674 123.794 139.199 127.135 127.467 116.8C123.825 113.592 121.193 109.829 119.388 105.545C117.34 101.499 118.22 97.0112 113.623 102.492C110.616 106.077 111.989 107.729 110.752 111.362C106.511 123.812 89.0381 123.315 82.3779 113.273C75.0966 120.963 61.683 122.846 52.5963 117.374C51.6874 116.827 50.5917 116.239 49.8985 115.431C43.3734 118.085 38.6058 118.089 31.9174 118.652C32.1672 120.745 31.91 124.016 31.8046 126.18C31.704 128.445 31.6818 130.712 31.7376 132.978C31.8083 136.066 32.0195 139.146 32.1645 142.218C32.3412 145.961 33.2787 150.328 32.7555 154.02C31.8627 160.32 26.1872 165.603 20.0172 166.342C15.373 166.904 10.6978 165.581 7.03359 162.666C-0.627562 156.621 0.891813 148.049 0.217169 139.301C0.137667 138.27 0.374236 136.877 0 135.908V91.5193C0.115641 91.4251 0.210569 91.2646 0.213221 91.1069C0.56499 84.2793 -0.17859 75.5496 1.29134 68.9574C4.28961 55.5111 21.3207 54.4002 29.187 64.1512C30.4032 65.6584 31.7379 67.8521 32.0276 69.6513C39.325 69.3786 44.5886 72.1255 49.9132 76.7612C50.7532 75.979 51.6759 75.0475 52.4705 74.2166C59.5801 66.7817 71.3361 68.8521 78.9149 74.3803C80.605 74.4801 82.0602 74.4801 83.7449 74.4663C90.0094 68.8793 95.2461 68.0507 103.008 71.3567Z" fill="#FEFEFE"/>
<path d="M146.629 24.0779C147.153 23.9542 149.019 24.079 149.545 24.2296C156.891 26.3037 157.041 34.5402 156.969 40.7365C156.903 46.3928 155.925 50.3158 154.617 55.6633C159.67 55.7175 164.26 55.1097 169.247 54.7703C175.687 54.3321 182.105 53.996 188.539 53.3776C190.468 53.2024 192.393 52.9808 194.311 52.7132C195.276 52.5743 199.575 51.7113 200.046 52.2653C200.069 52.658 200.091 53.3633 199.737 53.6024C194.202 57.3466 185.621 57.2684 179.348 58.0372C171.886 58.9517 165.421 59.3072 158.008 59.6355C156.415 59.7063 154.861 59.7067 153.34 59.8663C152.279 62.4393 151.415 65.0248 150.376 67.5766C148.103 73.3053 145.143 78.736 141.562 83.7492C140.364 85.4159 139.012 87.0174 137.672 88.5734C136.494 89.9413 134.881 91.3823 133.978 92.9157C136.436 106.501 140.955 110.924 152.891 101.492C157.692 97.7257 162.108 92.592 165.515 87.5232C165.944 86.8845 166.59 85.6546 167.253 85.3005C168.41 85.5028 168.399 87.6974 168.149 88.5099C165.941 95.7269 160.397 102.423 154.496 106.952C148.396 111.635 138.031 111.601 133.666 104.566C127.386 94.4436 127.689 80.0813 128.059 68.522C128.13 66.3255 128.194 62.9727 128.571 60.9151C125.472 60.9013 122.287 60.9036 119.198 60.9307C117.639 60.944 112.1 61.4526 111.065 60.9266C109.98 59.6686 111.383 57.3861 112.987 57.1838C115.726 56.8376 118.488 57.1277 121.233 57.0072C123.91 56.8905 126.617 56.6468 129.294 56.455C129.656 54.6393 129.641 52.5946 129.996 50.7632C131.729 41.8479 135.161 24.5872 146.629 24.0779Z" fill="#750000"/>
<path d="M147.023 27.6672C149.426 27.2722 151.289 30.1681 151.68 32.215C153.227 40.3179 151.349 48.2798 149.408 56.0863C146.203 56.1028 143.148 56.2743 139.972 56.3208L134.221 56.318C134.22 51.308 137.419 37.777 140.063 33.3131C141.919 30.1807 143.471 28.6297 147.023 27.6672Z" fill="#FEFEFE"/>
<path d="M141.483 60.4833C143.726 60.402 145.956 60.4511 148.199 60.481C144.879 69.5556 142.126 76.5046 136.029 84.3216C135.071 85.5925 133.933 86.81 132.864 87.9968C132.944 84.9906 132.482 81.933 132.432 78.8928C132.384 72.8289 132.633 66.7665 133.176 60.7275C136.026 60.676 138.635 60.7082 141.483 60.4833Z" fill="#FEFEFE"/>
<path d="M14.9075 72.188C17.3234 72.1664 17.8762 72.7719 19.2667 74.6088C19.2007 80.5214 18.1494 86.4018 18.4234 92.4352C18.9975 91.7773 19.5584 91.1078 20.1055 90.4273C22.6681 87.2993 26.4984 84.5299 30.6066 84.1713C42.4301 83.14 44.806 93.2187 37.9758 101.102C39.5922 100.335 42.4604 99.8054 44.7536 98.7469C47.9981 97.2498 52.6133 95.2993 55.3308 92.8068C55.8119 92.3654 56.9429 89.8024 57.6219 89.104C58.2682 88.2134 59.845 87.5223 60.5372 86.7848C61.8817 85.3525 61.9272 84.0862 64.3725 84.0793C68.0935 84.0692 70.8165 85.9696 73.4197 88.4244C75.9807 88.6824 80.1097 89.196 82.5426 89.1169C86.2287 88.9973 90.0759 88.5233 93.8584 88.5191C93.8841 87.4175 93.7827 83.4825 95.4733 83.7671C96.9739 84.02 98.122 85.1424 98.8803 86.3935C98.9643 87.9338 98.9028 90.0089 98.9033 91.5888C99.9324 90.7133 100.806 89.6217 101.921 88.6934C106.152 85.169 113.665 80.114 119.42 82.1017C121.869 82.9478 124.606 86.4482 120.55 87.4671C119.85 87.6432 119.786 87.7499 119.098 87.4004C118.731 86.9158 118.779 86.0955 118.753 85.461L118.541 85.3746C117.951 85.7249 115.288 86.0284 113.675 86.7701C107.46 89.6259 101.867 94.8874 99.158 101.224C98.4598 102.858 98.363 107.083 97.6065 108.075C96.3763 108.723 94.3882 107.097 93.5853 106.26C91.8373 103.3 93.2254 95.1747 93.5669 91.4917C88.0833 92.9042 81.4869 93.1148 75.8609 93.1135C76.3273 96.3904 75.9972 100.386 74.0954 103.178C70.0246 109.155 59.6664 109.895 55.8757 103.135C54.964 101.509 54.8332 100.45 54.4944 98.6425C51.6865 101.125 44.0537 104.425 40.3966 105.004C38.1752 105.651 35.6971 105.285 33.5148 105.606C28.8404 106.294 24.2953 106.329 20.0963 103.498C19.0147 107.767 18.5231 115.581 18.3439 120.065C17.9581 129.729 17.8662 140.002 18.8887 149.624C18.893 150.46 19.5682 152.954 18.8465 153.54C17.3935 154.721 15.4231 152.945 14.4939 151.954L13.3805 133.808C13.0108 128.027 13.3841 73.921 14.9075 72.188Z" fill="#750000"/>
<path d="M33.1859 87.8207C34.3492 87.7793 34.769 87.9007 35.8808 88.1517C38.9391 92.0637 35.2608 97.4719 32.1182 100.169C29.9554 102.025 27.6547 101.428 25.0528 101.07C23.4565 100.801 21.8139 100.544 20.2325 100.214C22.564 95.194 27.353 88.698 33.1859 87.8207Z" fill="#FEFEFE"/>
<path d="M62.8884 90.0939C63.5357 90.1574 64.6823 91.0071 65.4788 91.2292C67.0749 91.6747 68.6732 91.9635 70.2959 92.272C71.4022 96.5647 70.7013 101.231 66.547 103.574C65.4953 104.116 64.7333 104.357 63.6013 104.64C58.5615 103.109 58.8406 97.7689 60.5303 93.6463C61.0798 92.306 61.9758 91.2043 62.8884 90.0939Z" fill="#FEFEFE"/>
<path d="M218.178 62.38C218.893 62.2632 219.923 62.3041 220.656 62.2903C234.178 62.037 233.57 76.0563 233.389 85.8242C233.365 87.1158 233.857 88.7591 233.795 90.0084C233.356 98.8848 232.775 108.727 222.363 110.467L222.249 110.485C214.33 111.652 208.098 106.48 207.338 98.6443C206.527 90.2875 206.445 81.1738 207.64 72.8593C208.559 66.4639 211.725 63.1681 218.178 62.38Z" fill="#750000"/>
<path d="M219.162 71.5397C220.115 71.4619 221.054 71.5107 222.008 71.5401C222.614 71.9562 223.412 72.5048 223.758 73.1729C224.973 75.5091 224.729 95.9164 223.841 98.7469C223.474 99.9166 222.338 100.808 221.294 101.35C219.972 101.504 218.263 101.417 217.612 100C215.471 95.3352 215.979 89.7367 216.125 84.7377C216.222 81.3904 216.086 78.0674 216.885 74.7914C217.31 73.0243 217.677 72.4436 219.162 71.5397Z" fill="#FEFEFE"/>
<path d="M295.961 62.3777C304.418 61.5703 309.38 64.7976 310.7 73.4258C311.578 79.1594 310.93 84.6706 311.53 90.4236C311.546 91.8619 311.305 93.4091 311.219 94.822C310.757 102.511 308.448 109.016 300.201 110.483C291.559 111.284 286.022 106.798 285.072 98.1239C284.467 92.6058 284.534 87.2823 284.735 81.7215C284.926 76.4733 285.003 70.626 288.067 66.0947C289.812 63.6035 293.079 62.7451 295.961 62.3777Z" fill="#750000"/>
<path d="M296.965 71.5323C297.799 71.462 298.878 71.5125 299.732 71.5282C300.693 72.1489 300.993 72.4537 301.764 73.3057C302.317 77.8853 303 95.1655 301.536 98.9386C301.107 100.039 300.109 100.881 299.052 101.342C297.788 101.514 296.086 101.398 295.453 100.064C293.225 95.36 293.83 89.5923 293.987 84.5419C294.084 81.4456 293.796 78.393 294.561 75.3615C295.107 73.1825 295.126 72.6988 296.965 71.5323Z" fill="#FEFEFE"/>
<path d="M182.697 62.8357C183.373 62.7667 184.011 62.8021 184.687 62.8412C188.313 63.0509 191.931 63.0173 195.559 62.9C197.594 62.8338 200.416 62.5207 202.354 63.1893C203.112 64.233 203.041 70.1023 202.442 70.9079C200.748 73.1867 191.115 70.2154 189.542 72.5498C189.238 73.0014 189.228 80.8676 189.524 81.8208C192.424 84.1129 200.881 79.0293 201.067 84.2214C201.367 92.6444 199.327 90.7965 193.167 90.3284C191.085 90.3151 191.056 90.2926 189.335 91.3814C189.351 96.5201 189.671 102.118 188.8 107.194C188.414 109.435 187.587 110.27 185.269 110.158C183.928 110.093 181.581 110.433 180.475 109.434C180.037 107.935 180.196 104.017 180.159 102.314C180.119 100.413 179.921 98.0563 179.948 96.1881C179.991 93.3107 180.162 90.4963 180.175 87.5857C180.218 80.4492 180.177 73.3136 180.173 66.177C180.173 64.0886 180.683 63.4725 182.697 62.8357Z" fill="#750000"/>
<path d="M241.289 62.8145C243.496 62.6996 246.574 62.7455 248.788 62.8292C249.879 66.652 249.348 71.4472 249.483 75.4305C249.769 83.8991 249.029 92.6113 249.31 101.03C251.667 101.407 253.687 101.549 256.071 101.248C257.829 101.025 259.451 100.65 261.22 100.686C262.038 101.132 262.234 101.285 262.939 101.903C263.456 104.15 263.35 107.814 261.812 109.663C261.314 110.156 260.706 110.16 260.032 110.151C254.052 110.067 248.07 110.167 242.093 110.102C241.433 110.095 240.6 109.842 240.071 109.44C239.883 108.964 239.757 108.166 239.781 107.661C240.073 101.422 239.695 95.194 239.633 88.9798C239.587 83.1528 239.607 77.3253 239.688 71.4992C239.697 69.3377 239.365 65.9853 239.908 63.9783C240.084 63.329 240.709 63.0674 241.289 62.8145Z" fill="#750000"/>
<path d="M270.599 62.8118C272.083 62.7249 275.869 62.5777 277.043 63.0739C279.176 64.5222 277.767 71.2013 277.756 73.206C277.677 83.6209 277.646 94.0574 277.759 104.47C277.789 107.334 279.043 108.978 275.93 110.096C274.298 110.19 271.496 110.155 269.879 110.071C269.658 109.916 268.603 109.123 268.59 108.929C267.782 97.5933 268.834 85.9608 268.517 74.5454C268.427 71.2541 268.177 68.2512 268.412 65.0009C268.476 64.1144 269.963 63.187 270.599 62.8118Z" fill="#750000"/>
</svg>
