<svg width="708" height="398" viewBox="0 0 708 398" fill="none" xmlns="http://www.w3.org/2000/svg">
<path d="M224.398 155.191C215.228 145.813 210.237 138.588 211.537 124.823C212.804 111.425 222.093 99.8648 234.388 94.7368C241.981 91.5698 247.839 92.2727 255.75 91.6206C256.542 90.0227 258.989 81.1007 259.308 79.9838C268.772 46.7821 288.751 17.4527 327.2 21.3221C339.634 22.5773 351.048 28.7535 358.902 38.475C369.142 51.1069 373.159 71.6476 371.506 87.5192C377.791 87.3978 384.45 86.291 390.721 85.7536C399.616 84.9915 408.694 84.7159 417.551 83.6668C423.977 82.905 429.778 80.7598 436.457 81.1232C441.338 81.3891 445.117 82.5191 449.418 84.7813C458.012 89.3028 462.222 95.742 464.995 104.765C474.82 102.384 489.429 103.01 499.195 106.155C500.761 106.659 507.33 109.622 508.114 109.511C510.41 109.186 515.547 106.148 518.683 105.526C525.728 104.127 532.794 104.27 539.936 104.438C550.608 104.688 558.003 108 565.283 115.661C575.928 102.114 606.591 101.08 620.35 110.099C621.056 109.678 621.775 109.275 622.501 108.891C636.177 101.74 655.363 102.082 669.679 106.458C696.039 114.515 706.299 138.113 707.841 163.85C707.893 163.933 707.948 164.016 708 164.099V207.368C707.412 211.329 706.825 218.2 705.967 221.666C702.673 234.977 695.862 248.659 684.686 256.926C672.137 266.326 656.352 270.325 640.84 268.033C634.182 267.02 626.666 264.769 620.945 261.181C608.175 268.403 593.088 269.334 579.025 265.686C570.32 268.562 555.669 267.534 546.183 267.626C534.322 267.741 518.033 268.863 508.121 261.513C482.069 273.735 456.733 270.605 436.385 249.64C429.526 259.479 422.619 265.629 410.263 267.048C389.486 269.436 374.033 264.562 364.876 245.315C343.487 269.234 303.24 276.502 277.683 254.025C269.749 247.046 264.015 238.863 260.082 229.545C255.62 220.747 257.538 210.986 247.523 222.905C240.972 230.702 243.964 234.296 241.268 242.198C232.031 269.274 193.966 268.194 179.457 246.353C163.595 263.079 134.374 267.173 114.579 255.273C112.599 254.082 110.212 252.805 108.702 251.047C94.4872 256.819 84.1013 256.827 69.5309 258.051C70.0751 262.603 69.5147 269.718 69.2851 274.425C69.066 279.35 69.0176 284.281 69.1392 289.209C69.2931 295.925 69.7532 302.624 70.0692 309.305C70.454 317.445 72.4964 326.942 71.3566 334.972C69.4117 348.674 57.0479 360.164 43.6066 361.772C33.4895 362.993 23.3048 360.116 15.3224 353.777C-1.36712 340.629 1.94278 321.986 0.473095 302.961C0.299902 300.719 0.815258 297.689 0 295.581V199.042C0.25192 198.837 0.458717 198.488 0.464494 198.145C1.23081 183.296 -0.389051 164.31 2.81314 149.973C9.34474 120.729 46.4463 118.313 63.5828 139.52C66.2322 142.798 69.1399 147.569 69.7708 151.482C85.668 150.889 97.1346 156.863 108.734 166.945C110.564 165.244 112.574 163.218 114.305 161.411C129.793 145.241 155.403 149.744 171.913 161.767C175.595 161.984 178.765 161.984 182.435 161.954C196.082 149.803 207.49 148.001 224.398 155.191Z" fill="#FEFEFE"/>
<path d="M319.425 52.3662C320.567 52.0972 324.632 52.3686 325.777 52.6961C341.78 57.2069 342.107 75.1203 341.951 88.5963C341.808 100.898 339.676 109.43 336.828 121.06C347.836 121.178 357.834 119.856 368.699 119.118C382.728 118.165 396.708 117.434 410.726 116.089C414.927 115.708 419.12 115.226 423.3 114.644C425.401 114.342 434.767 112.465 435.793 113.67C435.842 114.524 435.89 116.058 435.119 116.578C423.061 124.721 404.369 124.551 390.703 126.223C374.448 128.212 360.364 128.985 344.214 129.699C340.745 129.853 337.359 129.854 334.046 130.201C331.734 135.797 329.851 141.42 327.589 146.97C322.636 159.429 316.188 171.24 308.387 182.143C305.778 185.768 302.832 189.251 299.914 192.635C297.348 195.61 293.834 198.744 291.865 202.079C297.22 231.626 307.066 241.245 333.067 220.731C343.526 212.54 353.146 201.375 360.568 190.351C361.502 188.962 362.909 186.287 364.354 185.517C366.874 185.957 366.85 190.73 366.307 192.497C361.495 208.193 349.419 222.756 336.564 232.606C323.275 242.79 300.696 242.718 291.187 227.417C277.505 205.402 278.166 174.166 278.972 149.026C279.126 144.249 279.266 136.957 280.088 132.482C273.337 132.452 266.398 132.457 259.668 132.516C256.271 132.545 244.206 133.651 241.951 132.507C239.587 129.771 242.644 124.807 246.137 124.367C252.105 123.614 258.122 124.245 264.102 123.983C269.933 123.729 275.83 123.199 281.661 122.782C282.45 118.833 282.417 114.386 283.192 110.403C286.967 91.0134 294.442 53.4738 319.425 52.3662Z" fill="#750000"/>
<path d="M320.284 60.1723C325.519 59.3134 329.578 65.6115 330.429 70.0632C333.799 87.6859 329.709 105.002 325.479 121.98C318.497 122.016 311.842 122.389 304.923 122.49L292.395 122.484C292.394 111.588 299.362 82.1598 305.122 72.4515C309.165 65.6389 312.546 62.2657 320.284 60.1723Z" fill="#FEFEFE"/>
<path d="M308.216 131.543C313.101 131.366 317.96 131.473 322.846 131.538C315.614 151.274 309.617 166.387 296.333 183.388C294.246 186.152 291.767 188.8 289.44 191.381C289.614 184.843 288.606 178.193 288.499 171.581C288.394 158.393 288.935 145.208 290.119 132.074C296.328 131.962 302.011 132.032 308.216 131.543Z" fill="#FEFEFE"/>
<path d="M32.4755 156.999C37.7383 156.952 38.9427 158.269 41.9718 162.264C41.8279 175.123 39.5377 187.912 40.1347 201.034C41.3854 199.603 42.6072 198.147 43.7991 196.667C49.3816 189.864 57.7258 183.841 66.6754 183.061C92.4323 180.818 97.6082 202.738 82.7288 219.883C86.2501 218.215 92.4983 217.063 97.4941 214.761C104.562 211.505 114.616 207.263 120.536 201.842C121.584 200.882 124.048 195.308 125.527 193.789C126.935 191.852 130.37 190.349 131.878 188.745C134.807 185.63 134.906 182.876 140.233 182.861C148.339 182.839 154.271 186.972 159.942 192.311C165.521 192.872 174.516 193.989 179.816 193.817C187.846 193.557 196.227 192.526 204.467 192.517C204.523 190.121 204.302 181.563 207.985 182.182C211.254 182.732 213.755 185.173 215.407 187.894C215.59 191.244 215.456 195.757 215.457 199.193C217.699 197.289 219.603 194.915 222.03 192.896C231.249 185.231 247.614 174.237 260.151 178.56C265.487 180.4 271.45 188.013 262.614 190.229C261.088 190.612 260.949 190.844 259.45 190.084C258.65 189.03 258.756 187.246 258.699 185.866L258.236 185.678C256.952 186.44 251.15 187.1 247.636 188.713C234.097 194.924 221.913 206.367 216.012 220.149C214.491 223.701 214.28 232.891 212.632 235.048C209.952 236.458 205.621 232.922 203.872 231.101C200.064 224.664 203.088 206.992 203.832 198.982C191.886 202.054 177.516 202.512 165.26 202.509C166.276 209.636 165.557 218.325 161.414 224.397C152.546 237.398 129.981 239.006 121.723 224.305C119.737 220.768 119.452 218.465 118.714 214.534C112.597 219.932 95.9692 227.109 88.0025 228.37C83.1633 229.777 77.7648 228.98 73.0107 229.678C62.8277 231.174 52.9264 231.251 43.7791 225.095C41.4228 234.379 40.3518 251.372 39.9615 261.124C39.1211 282.142 38.9209 304.486 41.1483 325.411C41.1576 327.23 42.6286 332.653 41.0563 333.929C37.8911 336.497 33.5986 332.634 31.5743 330.479L29.149 291.015C28.3436 278.441 29.1568 160.768 32.4755 156.999Z" fill="#750000"/>
<path d="M72.2942 190.998C74.8285 190.908 75.7429 191.172 78.1649 191.718C84.8273 200.226 76.8142 211.988 69.9683 217.854C65.2567 221.891 60.2447 220.593 54.5765 219.814C51.0991 219.228 47.5207 218.669 44.0758 217.952C49.1549 207.034 59.5875 192.906 72.2942 190.998Z" fill="#FEFEFE"/>
<path d="M137 195.942C138.41 196.08 140.908 197.928 142.643 198.411C146.12 199.38 149.602 200.008 153.137 200.679C155.547 210.015 154.02 220.164 144.97 225.26C142.679 226.439 141.019 226.962 138.553 227.578C127.574 224.249 128.182 212.634 131.863 203.668C133.06 200.753 135.012 198.357 137 195.942Z" fill="#FEFEFE"/>
<path d="M475.293 135.668C476.849 135.414 479.093 135.503 480.69 135.473C510.147 134.922 508.823 165.412 508.429 186.656C508.377 189.465 509.449 193.039 509.314 195.756C508.356 215.061 507.091 236.466 484.41 240.25L484.161 240.289C466.91 242.828 453.334 231.58 451.678 214.538C449.912 196.363 449.732 176.542 452.335 158.459C454.337 144.55 461.234 137.382 475.293 135.668Z" fill="#750000"/>
<path d="M477.437 155.589C479.511 155.42 481.558 155.526 483.635 155.59C484.956 156.495 486.695 157.688 487.448 159.141C490.096 164.222 489.564 208.605 487.628 214.761C486.83 217.305 484.354 219.243 482.08 220.422C479.2 220.758 475.477 220.568 474.059 217.487C469.396 207.341 470.502 195.165 470.82 184.293C471.031 177.013 470.734 169.786 472.476 162.661C473.402 158.818 474.201 157.555 477.437 155.589Z" fill="#FEFEFE"/>
<path d="M644.74 135.663C663.162 133.907 673.972 140.926 676.849 159.691C678.76 172.161 677.35 184.147 678.657 196.659C678.691 199.787 678.166 203.152 677.979 206.225C676.973 222.947 671.943 237.094 653.977 240.285C635.15 242.027 623.088 232.271 621.018 213.406C619.7 201.405 619.846 189.827 620.285 177.733C620.7 166.319 620.869 153.602 627.544 143.747C631.344 138.329 638.462 136.462 644.74 135.663Z" fill="#750000"/>
<path d="M646.928 155.573C648.743 155.42 651.094 155.53 652.954 155.564C655.049 156.914 655.702 157.577 657.382 159.43C658.585 169.39 660.075 206.972 656.884 215.178C655.951 217.571 653.776 219.402 651.474 220.406C648.719 220.779 645.013 220.527 643.634 217.626C638.78 207.395 640.097 194.851 640.439 183.867C640.65 177.133 640.024 170.494 641.691 163.901C642.88 159.162 642.921 158.11 646.928 155.573Z" fill="#FEFEFE"/>
<path d="M397.998 136.659C399.47 136.509 400.86 136.586 402.333 136.671C410.232 137.127 418.114 137.054 426.017 136.799C430.452 136.655 436.599 135.974 440.82 137.428C442.472 139.698 442.317 152.463 441.013 154.215C437.321 159.171 416.337 152.709 412.911 157.786C412.247 158.768 412.227 175.876 412.87 177.949C419.189 182.934 437.612 171.878 438.016 183.17C438.67 201.489 434.227 197.47 420.807 196.452C416.271 196.423 416.209 196.374 412.458 198.742C412.493 209.918 413.191 222.093 411.293 233.132C410.453 238.007 408.652 239.823 403.601 239.579C400.68 239.437 395.567 240.177 393.158 238.004C392.204 234.743 392.549 226.223 392.47 222.518C392.383 218.385 391.951 213.259 392.01 209.196C392.103 202.938 392.477 196.817 392.504 190.487C392.598 174.966 392.508 159.447 392.501 143.926C392.501 139.384 393.611 138.044 397.998 136.659Z" fill="#750000"/>
<path d="M525.638 136.613C530.447 136.363 537.153 136.463 541.976 136.645C544.351 144.959 543.196 155.388 543.49 164.051C544.112 182.469 542.501 201.417 543.113 219.726C548.247 220.546 552.648 220.855 557.84 220.2C561.671 219.716 565.204 218.901 569.058 218.978C570.839 219.948 571.267 220.28 572.802 221.626C573.929 226.511 573.698 234.48 570.348 238.502C569.262 239.575 567.938 239.584 566.469 239.563C553.443 239.381 540.41 239.598 527.391 239.457C525.953 239.441 524.138 238.891 522.986 238.016C522.575 236.982 522.302 235.246 522.354 234.148C522.99 220.58 522.167 207.034 522.032 193.519C521.932 180.846 521.974 168.172 522.15 155.501C522.171 150.8 521.448 143.509 522.63 139.144C523.014 137.732 524.376 137.163 525.638 136.613Z" fill="#750000"/>
<path d="M589.489 136.607C592.722 136.418 600.97 136.098 603.528 137.177C608.175 140.327 605.105 154.853 605.081 159.213C604.908 181.864 604.842 204.562 605.088 227.209C605.153 233.436 607.884 237.012 601.102 239.444C597.548 239.648 591.443 239.571 587.92 239.389C587.439 239.052 585.141 237.328 585.113 236.906C583.353 212.252 585.645 186.953 584.954 162.126C584.757 154.968 584.214 148.437 584.726 141.368C584.864 139.44 588.103 137.423 589.489 136.607Z" fill="#750000"/>
</svg>
