<svg width="32" height="69" viewBox="0 0 32 69" fill="none" xmlns="http://www.w3.org/2000/svg">
<path d="M1.3066 0.0483256C0.780865 -0.120867 0.217519 0.168163 0.0483256 0.693893C-0.120867 1.21962 0.168163 1.78297 0.693893 1.95216L1.00024 1.00024L1.3066 0.0483256ZM19.8704 67.8902C19.9989 68.4274 20.5385 68.7586 21.0756 68.6301L29.8286 66.5361C30.3657 66.4076 30.697 65.868 30.5685 65.3309C30.44 64.7937 29.9004 64.4625 29.3633 64.591L21.5828 66.4523L19.7215 58.6719C19.593 58.1348 19.0534 57.8035 18.5162 57.932C17.9791 58.0605 17.6478 58.6001 17.7763 59.1372L19.8704 67.8902ZM1.00024 1.00024L0.693893 1.95216C8.99413 4.62339 19.8784 11.0937 25.6537 21.7481C31.3824 32.3164 32.2072 47.2345 19.9907 67.1344L20.8429 67.6576L21.6952 68.1807C34.1958 47.818 33.5557 32.129 27.412 20.795C21.315 9.54716 9.91936 2.82013 1.3066 0.0483256L1.00024 1.00024Z" fill="black"/>
</svg>
